<svg id="f769e95b-b1a0-49ca-983a-44c2db031a3b" data-name="Layer 1" xmlns="http://www.w3.org/2000/svg" xmlns:xlink="http://www.w3.org/1999/xlink" width="531.86" height="400" viewBox="0 0 531.86 400">
  <defs>
    <style>
      .a0308ad7-183e-406c-a753-c564a926e68b, .a204c13e-d149-4e32-8726-ee5307f5ddd9, .a6bcbda1-3a3d-4f45-afc0-c2f45e1ea658, .a776a1e6-c19a-489f-a09e-e8acd6d0f96e, .a88092c5-037a-4774-be51-55081d9c26ad, .b1a740e3-0cad-4a82-a18d-6d535804b099, .b36eb70a-b759-438e-875a-a04a878475d6, .ba3a508d-efec-4d4b-b567-12131c25a05f, .bb453639-ad8e-4808-a440-4f8aaafadbc8, .bf3a07ea-8a94-42b8-b6ed-05631ff9df47, .e183389d-c87a-4f79-9f1e-09de4ea9e903, .e1f8d3f4-33af-4262-b574-95b65f45174d, .e38548ef-aa42-41b5-9943-176691f3d9ab, .e887e1c9-ce55-4534-940e-e037be6d7570, .f7e54c3b-d025-4e1e-bfa2-831872f9cf08, .f7ea9aba-0838-41f1-ae71-f2e2409f8b68 {
        opacity: 0.2;
      }

      .f2820dce-41aa-492e-8f8b-fb23dc1bed3e {
        fill: #d9eaff;
      }

      .b5220f89-265e-46bf-b368-08f4b46d11a1 {
        fill: url(#f5fec75f-1c1c-4d1d-b1c5-92f556132a48);
      }

      .faaec164-6ae7-488e-8154-c6c0f9283e26 {
        fill: url(#b38780bb-7731-41b5-8f88-2b521effdbbe);
      }

      .abbf44e8-46d7-4c19-8759-07f9eebbd37d {
        fill: url(#afae9827-d865-4547-8f7d-792e86dd8111);
      }

      .a2d29d9d-cd27-4bf3-aa0f-48a42b8eb13f {
        fill: url(#f9d9bac8-222f-476b-83e9-74202cb8a9b9);
      }

      .a6b9ab26-8635-492d-9bc0-e54f43d2985d, .aeb8c657-d563-4732-b880-9a58ba10c987, .f1edd447-ad0d-4359-be11-e1ca9d261d19 {
        opacity: 0.3;
      }

      .a6b9ab26-8635-492d-9bc0-e54f43d2985d {
        fill: url(#e18162f1-ed50-47c1-ab74-85098e376029);
      }

      .b3004d0c-d977-4d99-907b-86715941ea58 {
        fill: url(#ee563d77-2a28-42d1-8142-55684a67bbd8);
      }

      .af1436b4-4a11-4e5a-ad19-ddb836353cff {
        fill: url(#f8530dad-e305-45b3-98af-3ee0057ffd28);
      }

      .b36eb70a-b759-438e-875a-a04a878475d6 {
        fill: url(#b6bdc3ba-08c8-4144-832a-ce44ba069f5e);
      }

      .ab8e9e65-ab4f-4585-86dc-c5e9dd53fb5b {
        fill: url(#b44d0cbb-90c0-4c0c-b13a-ef3855367d81);
      }

      .bec50edf-21ab-4fe3-a1f8-16446f7c957c {
        fill: url(#aa2f4405-78bf-49a7-9e40-5b3b3bf1229d);
      }

      .f430f6a7-6bf9-4db3-8da2-1a16d22393ba {
        fill: url(#a9b0eb48-cb92-4168-997e-1279cc767e25);
      }

      .ad35f1e5-9a1c-47dd-95a7-a974d552d089 {
        fill: url(#a8da2959-55cf-4cfc-8744-25fb1e7cbcf8);
      }

      .a67fc1f7-148c-48af-a599-7e4b186229b3 {
        fill: url(#fe4a9419-3961-458a-9b63-d93a97d8c108);
      }

      .f8c580e5-f99e-4a99-9881-6d90ab2a16f6 {
        fill: url(#b63f5b7b-f930-4a72-a8f7-0d139b7a2e4e);
      }

      .bf9c9aec-aea6-456c-a37c-b0dd26189eb8 {
        fill: url(#b8af82e6-4513-4a57-80c3-5fd97f93ed62);
      }

      .b1d6916a-17d0-4e1d-b608-30f52a870230 {
        fill: url(#a44a9850-5b46-47dd-89ff-9303216d5907);
      }

      .e1ec3815-0a8e-46fc-bf96-7b9aa4018ec3 {
        fill: url(#fe93e787-55d5-44e3-b602-324c217bd18c);
      }

      .f9a11093-8367-48e5-91c0-beef023bb34a {
        fill: url(#a9bc0885-9d16-4112-88ea-854d27c76124);
      }

      .bef8f7f7-2e20-4827-bfc6-6774d0787669 {
        fill: url(#b70bd065-6668-4f70-9f4b-4124b49b7202);
      }

      .f7477dda-691a-4c46-9f53-d19319b8e33e {
        fill: url(#a764b1ce-b506-4a6a-99fe-57c03d4c1d21);
      }

      .f1edd447-ad0d-4359-be11-e1ca9d261d19 {
        fill: url(#e0e68575-fcf6-417e-83ac-41bff102a4b1);
      }

      .bf1d97d5-2ce0-4c58-8bf6-6545942c8eac {
        fill: url(#ac1f3ab6-45ba-41af-afc3-097d1827720a);
      }

      .af45eaa3-e670-4a07-86d1-d25669bede45 {
        fill: url(#b67a4cd1-4e02-4843-81ab-6e8086c5c069);
      }

      .b1a740e3-0cad-4a82-a18d-6d535804b099 {
        fill: url(#bda9a988-9500-4839-a609-595bec70d468);
      }

      .f89dff1b-fb1e-4170-a092-1d95e7bed81a {
        fill: url(#b9867834-5689-4a6c-9117-ee0379942163);
      }

      .b828f638-843f-492e-a491-f10755ff61e7 {
        fill: url(#b5ea4dfe-513f-4ffe-8ab6-66ae8c78c7af);
      }

      .aa6092ec-fa30-4f15-b1af-a34055005dbe {
        fill: url(#f585ef76-b069-4220-91fa-63261a77bdd2);
      }

      .a7c2d4d2-0fbf-404c-bbcb-88beeaa65ce7 {
        fill: url(#a4d80a21-9373-49ff-8e16-f1fa4eb1907d);
      }

      .b14dcc50-eeee-4b93-b3fb-79cc47bb1e1f {
        fill: url(#e5dbc67c-e07e-4a78-be02-6c7a363a8123);
      }

      .f5f27564-1506-44d1-b6e5-77faf2739a46 {
        fill: url(#ba2a9289-98d8-4d26-b561-0917c5653869);
      }

      .ac73a01a-cd47-4a01-bd42-84e14c52a2b6 {
        fill: url(#a1836320-cbf0-4c1e-af32-3b3fd04b8c48);
      }

      .ad6ee622-2979-4a08-823e-117d5bb892c4 {
        fill: url(#af37a5c2-6bc8-44f7-a577-3793f994bfa9);
      }

      .f2fb0004-a0e4-49e4-9e77-0f9c401456dd {
        fill: url(#e74e890f-b0ec-4945-a2ca-0de7deaddfca);
      }

      .b9ea3c4f-7f8c-45ad-baf2-8e40adb5ec60 {
        fill: url(#faffe00e-acbf-4b4c-a1dd-a6ba62043071);
      }

      .be058555-4fdd-4ed2-a63b-a6ee6fcc2a9a {
        fill: url(#b9aca97b-ab70-42db-957d-225bd8641b30);
      }

      .e31b67df-82f9-4a96-8a31-9565d011a637 {
        fill: url(#fc143a97-3fe3-4061-be8d-5cfb19ae717d);
      }

      .aeb8c657-d563-4732-b880-9a58ba10c987 {
        fill: url(#f522a197-808c-45b4-8de1-550a8339b873);
      }

      .a0cf8683-2091-4494-841f-246d7daa4b92 {
        fill: url(#ba6c9ca5-6087-45b7-a662-b3cf44488243);
      }

      .e94fdc55-2d35-4201-8442-63deb924a144 {
        fill: url(#ba8b926e-e1c8-467b-b5ea-c00856b8dc44);
      }

      .e38548ef-aa42-41b5-9943-176691f3d9ab {
        fill: url(#ab8da9c5-e8bf-4510-8f18-da026f98033a);
      }

      .b1b9e434-6e13-44bd-91d4-61fdcb5d4643 {
        fill: url(#f5646ab8-4c54-48d9-8469-6b0ff281a617);
      }

      .afcb2221-b5a1-42da-ad80-2898dac431c1 {
        fill: url(#be19fed0-8654-4783-a5bd-addc3f9e4a6a);
      }

      .e3d787de-2f31-4479-9bc0-c5ff37a04afa {
        fill: url(#b8c8ea3d-7f35-4cd1-8a24-9fb401218872);
      }

      .a0add5b7-ba3b-4839-be29-e617430d1a5e {
        fill: url(#faebe412-d7db-4860-b217-1ab7668020ae);
      }

      .b0b246da-ded3-43f9-95ac-91aead0ad15b {
        fill: url(#a6e8cacd-0caf-48b7-8ca0-e823b8646e44);
      }

      .ff594920-55e4-4492-8939-1cc7beeaad4d {
        fill: url(#a022de73-fe8d-47bb-9986-d9e2bb8374f3);
      }

      .efaa4cb8-1fff-4726-a89a-09ee60220177 {
        fill: url(#a1ddaf15-4dc8-4d3c-8382-8f8e349ec9c7);
      }

      .a2cb09e7-2784-4aea-8283-972959e27f55 {
        fill: url(#e230b0e8-fe8b-4b5c-9c28-ab1aafccc14d);
      }

      .fa37106e-6795-46ac-86a6-2eeb7572e0f4 {
        fill: url(#baa96d30-a3b7-4a5a-883d-85ade35cf849);
      }

      .b40f32f0-5ee7-4660-ae00-102750bc5b29 {
        fill: url(#adab18ea-d7d3-49fb-8e95-a5cb7dcba84d);
      }

      .bf586b7a-6989-41c9-95f8-f2f52a40a611 {
        fill: url(#ab02f9c8-f9ed-44a2-854e-105a0d931c22);
      }

      .b13277a8-1a0b-4db8-b468-d77e057fd2f5 {
        fill: url(#a09ab2f1-1f9a-41eb-888e-b47c56621bea);
      }

      .f84fdeb2-b223-4a25-9e6e-cd3c6b81e90c {
        fill: url(#a1f1ae86-0049-4d6b-a6bd-1fe07f8d376b);
      }

      .bd2c2384-2927-455d-a277-5aa2f4542d47 {
        fill: url(#a02b6b6c-acff-4576-a519-eb6ba81c7584);
      }

      .ac9dbb19-841b-4437-a69d-3287843e92df {
        fill: url(#a53d9752-b2f6-4d76-9736-5995827b2d8c);
      }

      .a35e4ef5-14e7-4f9e-bf5b-e813b3b6c2b9 {
        fill: url(#e5546f38-d13d-44a1-83e3-0b850b6ea5df);
      }

      .acbe30c4-7ab3-4085-b13b-29d8dc7de392 {
        fill: url(#a7cf6376-0c0d-49c6-a425-71af4c3fa173);
      }

      .e509193d-99cf-492c-ba38-90316a4c7b5b {
        fill: url(#b89a6309-223a-4e5c-b50e-81be156904d4);
      }

      .f7669bb2-1a81-4a1d-ae45-37f613fd2dcd {
        fill: url(#bbb04d24-fd81-4c7e-af87-7576f69636ad);
      }

      .b04725c3-bfc5-4940-a1f4-098d05d23738 {
        fill: url(#b64b1155-808e-45f6-b984-e642af24994a);
      }

      .bf972a0a-1d51-4e15-905e-3fa4638f87b2 {
        fill: url(#fdc41c44-267d-4c1d-b3f3-1517a8a0d23f);
      }

      .b464f1fe-9898-4561-a6ac-ae103979ac19 {
        fill: url(#bcced509-c7a5-4627-94df-d04123b69487);
      }

      .b7050551-cea4-4178-a263-e97cd576e8c4 {
        fill: url(#f2e616e7-57c8-4187-9628-fef2c9d0a20b);
      }

      .aac7afcc-46ba-45d9-808e-c29976935c25 {
        fill: url(#ab8ad39f-917f-47fb-9ab8-741b2e028df5);
      }

      .f5146f25-6172-478a-9b96-6bb85d6fb61c {
        fill: url(#b09922bb-b87d-439d-95a2-98a28f04639a);
      }

      .bb453639-ad8e-4808-a440-4f8aaafadbc8 {
        fill: url(#fe84f9b1-c918-49b5-a2ec-c891a3ae038b);
      }

      .e1f8d3f4-33af-4262-b574-95b65f45174d {
        fill: url(#b48d5e1c-4d98-486d-8271-8d2e3e9233f2);
      }

      .a58224ff-a6d5-4819-abcc-06b60f5df82f {
        fill: url(#b08005e3-53a8-4b6a-b6f5-19343da2d5e0);
      }

      .a776a1e6-c19a-489f-a09e-e8acd6d0f96e {
        fill: url(#b0850168-37d7-4e4c-9c8b-4f22b6e67969);
      }

      .e183389d-c87a-4f79-9f1e-09de4ea9e903 {
        fill: url(#ff4499e4-0327-40fa-a0ba-1e1a4aab24b2);
      }

      .e335d227-a052-43c3-a93a-d4e3e97168d3 {
        fill: url(#a2907d98-a6ad-4af9-a5c6-bcf153c44e72);
      }

      .a88092c5-037a-4774-be51-55081d9c26ad {
        fill: url(#a0a8a049-8c3a-470d-88c5-9728f5d85dfd);
      }

      .ba3a508d-efec-4d4b-b567-12131c25a05f {
        fill: url(#a0d1fc02-e9bd-404c-9cb9-933ca0bcd825);
      }

      .ef5a92d7-c4a5-4f55-9c62-5b78f7d6ce78 {
        fill: url(#bc6c10b6-7f35-4e7e-b010-7ab6214f312d);
      }

      .f7e54c3b-d025-4e1e-bfa2-831872f9cf08 {
        fill: url(#e1b1e101-a0f1-430b-83e3-956a31b2c0e6);
      }

      .a6bcbda1-3a3d-4f45-afc0-c2f45e1ea658 {
        fill: url(#b560f59a-1cfb-4ae6-8ccc-db3f791e8f03);
      }

      .a175acfd-1207-46fa-a6f5-15e60c34adcd {
        fill: url(#bf96405d-c4fa-41b1-9f2b-86b030f113d8);
      }

      .a0308ad7-183e-406c-a753-c564a926e68b {
        fill: url(#e06073e4-8964-4ff9-aff1-b1262da8a5cc);
      }

      .a204c13e-d149-4e32-8726-ee5307f5ddd9 {
        fill: url(#e524ef8e-d648-4137-89b3-63ed8408870a);
      }

      .a2d9600b-b181-410f-9ec9-0cfe0d84e8fb {
        fill: url(#e70678f4-4f93-4b80-beae-8f322567a492);
      }

      .f7ea9aba-0838-41f1-ae71-f2e2409f8b68 {
        fill: url(#abc0181b-7bda-45c8-86be-342aa65f1147);
      }

      .bf3a07ea-8a94-42b8-b6ed-05631ff9df47 {
        fill: url(#afea855d-804d-471e-a592-ec85d5674fec);
      }

      .a1dd38d7-b89d-4321-916d-af23d81f2473 {
        fill: url(#ac78fe53-463b-465c-a845-4fdee911c2df);
      }

      .a5b29db6-c038-43ff-aebb-7167645ce04a {
        fill: url(#b7f0113a-5663-4481-a758-ce8daf78befc);
      }

      .bb5c9445-875b-4ba0-982e-2642237d22f4 {
        fill: url(#b14754df-ccaf-40b8-95ef-a3756aea6adf);
      }

      .a2448d34-3b75-4913-807c-e831fe9263e0, .b160c19a-e43b-4f44-8ff9-f7f23f6615f1, .f6bda24d-aaea-4cb5-af23-d67f5fc36309 {
        opacity: 0.5;
      }

      .f6bda24d-aaea-4cb5-af23-d67f5fc36309 {
        fill: url(#aa937364-9cf4-4308-a0de-a2cb9c02e9bd);
      }

      .bc57bea1-a639-433d-89e1-36451c7e47b1 {
        fill: url(#e3c66495-6ef4-4546-9dbe-384ee7570a48);
      }

      .f994871d-57c1-453b-b273-e878acdb7870 {
        fill: url(#b21a95b6-f4fd-4b78-b8b3-e5fcaf64098d);
      }

      .ea0d5cf5-052a-4cd8-869b-a80b9f5890d0 {
        fill: url(#fbaecdaa-fa4d-41a3-87eb-7db1ae8c1f24);
      }

      .b160c19a-e43b-4f44-8ff9-f7f23f6615f1 {
        fill: url(#f02122c8-3702-4a72-8ad1-24b35af12e91);
      }

      .b8a5e8fa-c014-4f62-abd7-0a625967b01f {
        fill: url(#f7b63600-d895-453f-b9dd-a69d398b09a0);
      }

      .accb0036-afd0-419a-a8b6-fabab940b462 {
        fill: url(#e90da5b3-ff21-4cf8-ba31-4dbe0cbf5d26);
      }

      .eaba5313-711f-450e-a973-2baf5b54de91 {
        fill: url(#ef0de5d5-92d6-4174-9382-12ae8fafbefa);
      }

      .a2448d34-3b75-4913-807c-e831fe9263e0 {
        fill: url(#a3abe54f-5352-4dfe-a181-d8a90cc80b18);
      }
    </style>
    <linearGradient id="f5fec75f-1c1c-4d1d-b1c5-92f556132a48" x1="565.25" y1="140.88" x2="-229.49" y2="429.67" gradientUnits="userSpaceOnUse">
      <stop offset="0" stop-color="#00bfa5"/>
      <stop offset="0.5" stop-color="#6dd9ca"/>
      <stop offset="1" stop-color="#b5f2ea"/>
    </linearGradient>
    <linearGradient id="b38780bb-7731-41b5-8f88-2b521effdbbe" x1="593.9" y1="219.7" x2="-200.84" y2="508.49" xlink:href="#f5fec75f-1c1c-4d1d-b1c5-92f556132a48"/>
    <linearGradient id="afae9827-d865-4547-8f7d-792e86dd8111" x1="547.42" y1="91.81" x2="-247.32" y2="380.6" xlink:href="#f5fec75f-1c1c-4d1d-b1c5-92f556132a48"/>
    <linearGradient id="f9d9bac8-222f-476b-83e9-74202cb8a9b9" x1="126.78" y1="176.94" x2="126.81" y2="176.94" gradientUnits="userSpaceOnUse">
      <stop offset="0" stop-color="#007aff"/>
      <stop offset="0.5" stop-color="#009cff"/>
      <stop offset="1" stop-color="#d9eaff"/>
    </linearGradient>
    <linearGradient id="e18162f1-ed50-47c1-ab74-85098e376029" x1="75.99" y1="175.49" x2="673.6" y2="175.49" gradientUnits="userSpaceOnUse">
      <stop offset="0" stop-color="#00349b"/>
      <stop offset="0.5" stop-color="#005cff"/>
      <stop offset="1" stop-color="#007aff"/>
    </linearGradient>
    <linearGradient id="ee563d77-2a28-42d1-8142-55684a67bbd8" x1="111.19" y1="165.11" x2="708.79" y2="165.11" xlink:href="#f9d9bac8-222f-476b-83e9-74202cb8a9b9"/>
    <linearGradient id="f8530dad-e305-45b3-98af-3ee0057ffd28" x1="-107.28" y1="163.33" x2="490.33" y2="163.33" xlink:href="#f9d9bac8-222f-476b-83e9-74202cb8a9b9"/>
    <linearGradient id="b6bdc3ba-08c8-4144-832a-ce44ba069f5e" x1="-25.11" y1="171.05" x2="280.21" y2="158.85" xlink:href="#e18162f1-ed50-47c1-ab74-85098e376029"/>
    <linearGradient id="b44d0cbb-90c0-4c0c-b13a-ef3855367d81" x1="133.8" y1="163.43" x2="248.17" y2="163.43" xlink:href="#f5fec75f-1c1c-4d1d-b1c5-92f556132a48"/>
    <linearGradient id="aa2f4405-78bf-49a7-9e40-5b3b3bf1229d" x1="14" y1="150.04" x2="343.01" y2="133.86" xlink:href="#f9d9bac8-222f-476b-83e9-74202cb8a9b9"/>
    <linearGradient id="a9b0eb48-cb92-4168-997e-1279cc767e25" x1="-25.11" y1="121.86" x2="280.21" y2="109.66" xlink:href="#f9d9bac8-222f-476b-83e9-74202cb8a9b9"/>
    <linearGradient id="a8da2959-55cf-4cfc-8744-25fb1e7cbcf8" x1="269.39" y1="121.1" x2="-19.64" y2="122.51" xlink:href="#e18162f1-ed50-47c1-ab74-85098e376029"/>
    <linearGradient id="fe4a9419-3961-458a-9b63-d93a97d8c108" x1="14" y1="122.25" x2="343.01" y2="106.07" xlink:href="#f9d9bac8-222f-476b-83e9-74202cb8a9b9"/>
    <linearGradient id="b63f5b7b-f930-4a72-a8f7-0d139b7a2e4e" x1="-25.11" y1="94.06" x2="280.21" y2="81.87" xlink:href="#f9d9bac8-222f-476b-83e9-74202cb8a9b9"/>
    <linearGradient id="b8af82e6-4513-4a57-80c3-5fd97f93ed62" x1="269.25" y1="93.23" x2="-19.78" y2="94.63" xlink:href="#e18162f1-ed50-47c1-ab74-85098e376029"/>
    <linearGradient id="a44a9850-5b46-47dd-89ff-9303216d5907" x1="14" y1="94.37" x2="343.01" y2="78.19" xlink:href="#f9d9bac8-222f-476b-83e9-74202cb8a9b9"/>
    <linearGradient id="fe93e787-55d5-44e3-b602-324c217bd18c" x1="-25.11" y1="66.19" x2="280.21" y2="53.99" xlink:href="#f9d9bac8-222f-476b-83e9-74202cb8a9b9"/>
    <linearGradient id="a9bc0885-9d16-4112-88ea-854d27c76124" x1="140.16" y1="91.27" x2="183.86" y2="91.27" gradientUnits="userSpaceOnUse">
      <stop offset="0" stop-color="#fbd242"/>
      <stop offset="1" stop-color="#f56329"/>
    </linearGradient>
    <linearGradient id="b70bd065-6668-4f70-9f4b-4124b49b7202" x1="140.16" y1="119.42" x2="183.86" y2="119.42" xlink:href="#a9bc0885-9d16-4112-88ea-854d27c76124"/>
    <linearGradient id="a764b1ce-b506-4a6a-99fe-57c03d4c1d21" x1="140.16" y1="145.88" x2="183.86" y2="145.88" xlink:href="#a9bc0885-9d16-4112-88ea-854d27c76124"/>
    <linearGradient id="e0e68575-fcf6-417e-83ac-41bff102a4b1" x1="271.59" y1="159.2" x2="869.2" y2="159.2" xlink:href="#e18162f1-ed50-47c1-ab74-85098e376029"/>
    <linearGradient id="ac1f3ab6-45ba-41af-afc3-097d1827720a" x1="306.79" y1="148.82" x2="904.39" y2="148.82" xlink:href="#f9d9bac8-222f-476b-83e9-74202cb8a9b9"/>
    <linearGradient id="b67a4cd1-4e02-4843-81ab-6e8086c5c069" x1="88.33" y1="147.03" x2="685.93" y2="147.03" xlink:href="#f9d9bac8-222f-476b-83e9-74202cb8a9b9"/>
    <linearGradient id="bda9a988-9500-4839-a609-595bec70d468" x1="170.49" y1="154.75" x2="475.81" y2="142.56" xlink:href="#e18162f1-ed50-47c1-ab74-85098e376029"/>
    <linearGradient id="b9867834-5689-4a6c-9117-ee0379942163" x1="329.4" y1="147.13" x2="443.77" y2="147.13" xlink:href="#f5fec75f-1c1c-4d1d-b1c5-92f556132a48"/>
    <linearGradient id="b5ea4dfe-513f-4ffe-8ab6-66ae8c78c7af" x1="209.6" y1="133.75" x2="538.61" y2="117.57" xlink:href="#f9d9bac8-222f-476b-83e9-74202cb8a9b9"/>
    <linearGradient id="f585ef76-b069-4220-91fa-63261a77bdd2" x1="170.49" y1="105.56" x2="475.81" y2="93.37" xlink:href="#f9d9bac8-222f-476b-83e9-74202cb8a9b9"/>
    <linearGradient id="a4d80a21-9373-49ff-8e16-f1fa4eb1907d" x1="464.99" y1="104.81" x2="175.96" y2="106.22" xlink:href="#e18162f1-ed50-47c1-ab74-85098e376029"/>
    <linearGradient id="e5dbc67c-e07e-4a78-be02-6c7a363a8123" x1="209.6" y1="105.96" x2="538.61" y2="89.78" xlink:href="#f9d9bac8-222f-476b-83e9-74202cb8a9b9"/>
    <linearGradient id="ba2a9289-98d8-4d26-b561-0917c5653869" x1="170.49" y1="77.77" x2="475.81" y2="65.58" xlink:href="#f9d9bac8-222f-476b-83e9-74202cb8a9b9"/>
    <linearGradient id="a1836320-cbf0-4c1e-af32-3b3fd04b8c48" x1="464.85" y1="76.93" x2="175.82" y2="78.34" xlink:href="#e18162f1-ed50-47c1-ab74-85098e376029"/>
    <linearGradient id="af37a5c2-6bc8-44f7-a577-3793f994bfa9" x1="209.6" y1="78.08" x2="538.61" y2="61.9" xlink:href="#f9d9bac8-222f-476b-83e9-74202cb8a9b9"/>
    <linearGradient id="e74e890f-b0ec-4945-a2ca-0de7deaddfca" x1="170.49" y1="49.9" x2="475.81" y2="37.7" xlink:href="#f9d9bac8-222f-476b-83e9-74202cb8a9b9"/>
    <linearGradient id="faffe00e-acbf-4b4c-a1dd-a6ba62043071" x1="335.76" y1="74.97" x2="379.46" y2="74.97" xlink:href="#a9bc0885-9d16-4112-88ea-854d27c76124"/>
    <linearGradient id="b9aca97b-ab70-42db-957d-225bd8641b30" x1="335.76" y1="103.12" x2="379.46" y2="103.12" xlink:href="#a9bc0885-9d16-4112-88ea-854d27c76124"/>
    <linearGradient id="fc143a97-3fe3-4061-be8d-5cfb19ae717d" x1="335.76" y1="129.59" x2="379.46" y2="129.59" xlink:href="#a9bc0885-9d16-4112-88ea-854d27c76124"/>
    <linearGradient id="f522a197-808c-45b4-8de1-550a8339b873" x1="337.72" y1="344.36" x2="935.33" y2="344.36" xlink:href="#e18162f1-ed50-47c1-ab74-85098e376029"/>
    <linearGradient id="ba6c9ca5-6087-45b7-a662-b3cf44488243" x1="372.92" y1="333.98" x2="970.52" y2="333.98" xlink:href="#f9d9bac8-222f-476b-83e9-74202cb8a9b9"/>
    <linearGradient id="ba8b926e-e1c8-467b-b5ea-c00856b8dc44" x1="154.45" y1="332.19" x2="752.06" y2="332.19" xlink:href="#f9d9bac8-222f-476b-83e9-74202cb8a9b9"/>
    <linearGradient id="ab8da9c5-e8bf-4510-8f18-da026f98033a" x1="236.62" y1="339.91" x2="541.94" y2="327.72" xlink:href="#e18162f1-ed50-47c1-ab74-85098e376029"/>
    <linearGradient id="f5646ab8-4c54-48d9-8469-6b0ff281a617" x1="395.54" y1="332.3" x2="509.9" y2="332.3" xlink:href="#f5fec75f-1c1c-4d1d-b1c5-92f556132a48"/>
    <linearGradient id="be19fed0-8654-4783-a5bd-addc3f9e4a6a" x1="275.73" y1="318.91" x2="604.74" y2="302.73" xlink:href="#f9d9bac8-222f-476b-83e9-74202cb8a9b9"/>
    <linearGradient id="b8c8ea3d-7f35-4cd1-8a24-9fb401218872" x1="236.62" y1="290.72" x2="541.94" y2="278.53" xlink:href="#f9d9bac8-222f-476b-83e9-74202cb8a9b9"/>
    <linearGradient id="faebe412-d7db-4860-b217-1ab7668020ae" x1="531.12" y1="289.97" x2="242.09" y2="291.38" xlink:href="#e18162f1-ed50-47c1-ab74-85098e376029"/>
    <linearGradient id="a6e8cacd-0caf-48b7-8ca0-e823b8646e44" x1="275.73" y1="291.12" x2="604.74" y2="274.94" xlink:href="#f9d9bac8-222f-476b-83e9-74202cb8a9b9"/>
    <linearGradient id="a022de73-fe8d-47bb-9986-d9e2bb8374f3" x1="236.62" y1="262.93" x2="541.94" y2="250.74" xlink:href="#f9d9bac8-222f-476b-83e9-74202cb8a9b9"/>
    <linearGradient id="a1ddaf15-4dc8-4d3c-8382-8f8e349ec9c7" x1="530.98" y1="262.09" x2="241.95" y2="263.5" xlink:href="#e18162f1-ed50-47c1-ab74-85098e376029"/>
    <linearGradient id="e230b0e8-fe8b-4b5c-9c28-ab1aafccc14d" x1="275.73" y1="263.24" x2="604.74" y2="247.06" xlink:href="#f9d9bac8-222f-476b-83e9-74202cb8a9b9"/>
    <linearGradient id="baa96d30-a3b7-4a5a-883d-85ade35cf849" x1="236.62" y1="235.06" x2="541.94" y2="222.86" xlink:href="#f9d9bac8-222f-476b-83e9-74202cb8a9b9"/>
    <linearGradient id="adab18ea-d7d3-49fb-8e95-a5cb7dcba84d" x1="401.89" y1="260.13" x2="445.59" y2="260.13" xlink:href="#a9bc0885-9d16-4112-88ea-854d27c76124"/>
    <linearGradient id="ab02f9c8-f9ed-44a2-854e-105a0d931c22" x1="401.89" y1="288.28" x2="445.59" y2="288.28" xlink:href="#a9bc0885-9d16-4112-88ea-854d27c76124"/>
    <linearGradient id="a09ab2f1-1f9a-41eb-888e-b47c56621bea" x1="401.89" y1="314.75" x2="445.59" y2="314.75" xlink:href="#a9bc0885-9d16-4112-88ea-854d27c76124"/>
    <linearGradient id="a1f1ae86-0049-4d6b-a6bd-1fe07f8d376b" x1="76.18" y1="372.85" x2="244.04" y2="332.25" gradientTransform="translate(1.17 -1.39) rotate(0.23)" xlink:href="#f9d9bac8-222f-476b-83e9-74202cb8a9b9"/>
    <linearGradient id="a02b6b6c-acff-4576-a519-eb6ba81c7584" x1="172.39" y1="348.83" x2="237.75" y2="333.31" xlink:href="#e18162f1-ed50-47c1-ab74-85098e376029"/>
    <linearGradient id="a53d9752-b2f6-4d76-9736-5995827b2d8c" x1="41.53" y1="377.93" x2="281.04" y2="343.26" gradientTransform="translate(1.17 -1.39) rotate(0.23)" xlink:href="#f9d9bac8-222f-476b-83e9-74202cb8a9b9"/>
    <linearGradient id="e5546f38-d13d-44a1-83e3-0b850b6ea5df" x1="199.02" y1="365.3" x2="204.68" y2="365.3" gradientUnits="userSpaceOnUse">
      <stop offset="0" stop-color="#d99100"/>
      <stop offset="0.5" stop-color="#fac800"/>
      <stop offset="1" stop-color="#fbe20e"/>
    </linearGradient>
    <linearGradient id="a7cf6376-0c0d-49c6-a425-71af4c3fa173" x1="199.91" y1="227.93" x2="200.66" y2="332.36" xlink:href="#f5fec75f-1c1c-4d1d-b1c5-92f556132a48"/>
    <linearGradient id="b89a6309-223a-4e5c-b50e-81be156904d4" x1="204.2" y1="230.43" x2="204.95" y2="334.86" xlink:href="#f5fec75f-1c1c-4d1d-b1c5-92f556132a48"/>
    <linearGradient id="bbb04d24-fd81-4c7e-af87-7576f69636ad" x1="208.65" y1="233.02" x2="209.41" y2="337.45" xlink:href="#f5fec75f-1c1c-4d1d-b1c5-92f556132a48"/>
    <linearGradient id="b64b1155-808e-45f6-b984-e642af24994a" x1="217.57" y1="242.7" x2="169.64" y2="168.07" xlink:href="#f9d9bac8-222f-476b-83e9-74202cb8a9b9"/>
    <linearGradient id="fdc41c44-267d-4c1d-b3f3-1517a8a0d23f" x1="198.83" y1="231.17" x2="188.22" y2="196.4" xlink:href="#f9d9bac8-222f-476b-83e9-74202cb8a9b9"/>
    <linearGradient id="bcced509-c7a5-4627-94df-d04123b69487" x1="282.88" y1="328.38" x2="199.26" y2="180.68" xlink:href="#f9d9bac8-222f-476b-83e9-74202cb8a9b9"/>
    <linearGradient id="f2e616e7-57c8-4187-9628-fef2c9d0a20b" x1="-38.08" y1="254.43" x2="356.73" y2="254.43" xlink:href="#f9d9bac8-222f-476b-83e9-74202cb8a9b9"/>
    <linearGradient id="ab8ad39f-917f-47fb-9ab8-741b2e028df5" x1="277.41" y1="315.09" x2="249.4" y2="223.25" xlink:href="#f9d9bac8-222f-476b-83e9-74202cb8a9b9"/>
    <linearGradient id="b09922bb-b87d-439d-95a2-98a28f04639a" x1="336.36" y1="352" x2="294.34" y2="350.61" xlink:href="#a9bc0885-9d16-4112-88ea-854d27c76124"/>
    <linearGradient id="fe84f9b1-c918-49b5-a2ec-c891a3ae038b" x1="329.42" y1="348.17" x2="303.38" y2="347.3" gradientUnits="userSpaceOnUse">
      <stop offset="0" stop-color="#e7f0ff"/>
      <stop offset="1" stop-color="#fff"/>
    </linearGradient>
    <linearGradient id="b48d5e1c-4d98-486d-8271-8d2e3e9233f2" x1="329.14" y1="346.87" x2="303.43" y2="346.02" xlink:href="#fe84f9b1-c918-49b5-a2ec-c891a3ae038b"/>
    <linearGradient id="b08005e3-53a8-4b6a-b6f5-19343da2d5e0" x1="538.92" y1="180.63" x2="496.91" y2="179.24" xlink:href="#a9bc0885-9d16-4112-88ea-854d27c76124"/>
    <linearGradient id="b0850168-37d7-4e4c-9c8b-4f22b6e67969" x1="531.98" y1="176.79" x2="505.95" y2="175.93" xlink:href="#fe84f9b1-c918-49b5-a2ec-c891a3ae038b"/>
    <linearGradient id="ff4499e4-0327-40fa-a0ba-1e1a4aab24b2" x1="531.7" y1="175.49" x2="505.99" y2="174.64" xlink:href="#fe84f9b1-c918-49b5-a2ec-c891a3ae038b"/>
    <linearGradient id="a2907d98-a6ad-4af9-a5c6-bcf153c44e72" x1="100.92" y1="247.26" x2="74.21" y2="246.38" xlink:href="#a9bc0885-9d16-4112-88ea-854d27c76124"/>
    <linearGradient id="a0a8a049-8c3a-470d-88c5-9728f5d85dfd" x1="96.51" y1="244.82" x2="79.96" y2="244.27" xlink:href="#fe84f9b1-c918-49b5-a2ec-c891a3ae038b"/>
    <linearGradient id="a0d1fc02-e9bd-404c-9cb9-933ca0bcd825" x1="96.33" y1="244" x2="79.99" y2="243.46" xlink:href="#fe84f9b1-c918-49b5-a2ec-c891a3ae038b"/>
    <linearGradient id="bc6c10b6-7f35-4e7e-b010-7ab6214f312d" x1="96.22" y1="125.15" x2="69.5" y2="124.27" xlink:href="#a9bc0885-9d16-4112-88ea-854d27c76124"/>
    <linearGradient id="e1b1e101-a0f1-430b-83e3-956a31b2c0e6" x1="91.8" y1="122.71" x2="75.25" y2="122.17" xlink:href="#fe84f9b1-c918-49b5-a2ec-c891a3ae038b"/>
    <linearGradient id="b560f59a-1cfb-4ae6-8ccc-db3f791e8f03" x1="91.62" y1="121.89" x2="75.28" y2="121.35" xlink:href="#fe84f9b1-c918-49b5-a2ec-c891a3ae038b"/>
    <linearGradient id="bf96405d-c4fa-41b1-9f2b-86b030f113d8" x1="311.62" y1="203.61" x2="284.91" y2="202.73" xlink:href="#a9bc0885-9d16-4112-88ea-854d27c76124"/>
    <linearGradient id="e06073e4-8964-4ff9-aff1-b1262da8a5cc" x1="307.21" y1="201.17" x2="290.66" y2="200.62" xlink:href="#fe84f9b1-c918-49b5-a2ec-c891a3ae038b"/>
    <linearGradient id="e524ef8e-d648-4137-89b3-63ed8408870a" x1="307.03" y1="200.34" x2="290.69" y2="199.8" xlink:href="#fe84f9b1-c918-49b5-a2ec-c891a3ae038b"/>
    <linearGradient id="e70678f4-4f93-4b80-beae-8f322567a492" x1="313.89" y1="361.29" x2="290.38" y2="360.51" xlink:href="#a9bc0885-9d16-4112-88ea-854d27c76124"/>
    <linearGradient id="abc0181b-7bda-45c8-86be-342aa65f1147" x1="310.01" y1="359.14" x2="295.44" y2="358.66" xlink:href="#fe84f9b1-c918-49b5-a2ec-c891a3ae038b"/>
    <linearGradient id="afea855d-804d-471e-a592-ec85d5674fec" x1="309.85" y1="358.42" x2="295.47" y2="357.94" xlink:href="#fe84f9b1-c918-49b5-a2ec-c891a3ae038b"/>
    <linearGradient id="ac78fe53-463b-465c-a845-4fdee911c2df" x1="91.52" y1="360.76" x2="145.19" y2="352.05" xlink:href="#f9d9bac8-222f-476b-83e9-74202cb8a9b9"/>
    <linearGradient id="b7f0113a-5663-4481-a758-ce8daf78befc" x1="82.44" y1="361.26" x2="125.31" y2="350.31" xlink:href="#f9d9bac8-222f-476b-83e9-74202cb8a9b9"/>
    <linearGradient id="b14754df-ccaf-40b8-95ef-a3756aea6adf" x1="109.69" y1="295.04" x2="109.03" y2="510.04" gradientUnits="userSpaceOnUse">
      <stop offset="0" stop-color="#007aff" stop-opacity="0"/>
      <stop offset="0.5" stop-color="#009cff" stop-opacity="0.5"/>
      <stop offset="1" stop-color="#d9eaff"/>
    </linearGradient>
    <linearGradient id="aa937364-9cf4-4308-a0de-a2cb9c02e9bd" x1="109.86" y1="293.15" x2="108.65" y2="404.41" xlink:href="#b14754df-ccaf-40b8-95ef-a3756aea6adf"/>
    <linearGradient id="e3c66495-6ef4-4546-9dbe-384ee7570a48" x1="339.44" y1="279.12" x2="393.11" y2="270.41" xlink:href="#f9d9bac8-222f-476b-83e9-74202cb8a9b9"/>
    <linearGradient id="b21a95b6-f4fd-4b78-b8b3-e5fcaf64098d" x1="330.36" y1="279.62" x2="373.24" y2="268.68" xlink:href="#f9d9bac8-222f-476b-83e9-74202cb8a9b9"/>
    <linearGradient id="fbaecdaa-fa4d-41a3-87eb-7db1ae8c1f24" x1="357.61" y1="213.4" x2="356.95" y2="428.4" xlink:href="#b14754df-ccaf-40b8-95ef-a3756aea6adf"/>
    <linearGradient id="f02122c8-3702-4a72-8ad1-24b35af12e91" x1="357.79" y1="211.51" x2="356.57" y2="322.77" xlink:href="#b14754df-ccaf-40b8-95ef-a3756aea6adf"/>
    <linearGradient id="f7b63600-d895-453f-b9dd-a69d398b09a0" x1="20.57" y1="187.83" x2="74.24" y2="179.12" xlink:href="#f9d9bac8-222f-476b-83e9-74202cb8a9b9"/>
    <linearGradient id="e90da5b3-ff21-4cf8-ba31-4dbe0cbf5d26" x1="11.49" y1="188.33" x2="54.36" y2="177.39" xlink:href="#f9d9bac8-222f-476b-83e9-74202cb8a9b9"/>
    <linearGradient id="ef0de5d5-92d6-4174-9382-12ae8fafbefa" x1="38.74" y1="122.11" x2="38.08" y2="337.11" xlink:href="#b14754df-ccaf-40b8-95ef-a3756aea6adf"/>
    <linearGradient id="a3abe54f-5352-4dfe-a181-d8a90cc80b18" x1="38.91" y1="120.22" x2="37.7" y2="231.48" xlink:href="#b14754df-ccaf-40b8-95ef-a3756aea6adf"/>
  </defs>
  <title>cloud hosting hero illustration</title>
  <g>
    <g class="e887e1c9-ce55-4534-940e-e037be6d7570">
      <path class="f2820dce-41aa-492e-8f8b-fb23dc1bed3e" d="M70.88,314.22A1.81,1.81,0,0,1,70,314L32.29,292.25a.87.87,0,0,1-.44-.7v-.08a.87.87,0,0,1,.44-.74L60.9,274.21a1.79,1.79,0,0,1,1.79,0l37.69,21.73a.84.84,0,0,1,.4.49h0v.29a.85.85,0,0,1-.44.74L71.77,314A1.75,1.75,0,0,1,70.88,314.22ZM61.8,274.54a1.25,1.25,0,0,0-.62.16L32.57,291.22a.29.29,0,0,0-.15.25.3.3,0,0,0,.15.29l37.69,21.73a1.23,1.23,0,0,0,1.23,0L100.1,297a.31.31,0,0,0,.15-.22v0a.29.29,0,0,0-.15-.28L62.41,274.7A1.21,1.21,0,0,0,61.8,274.54Z"/>
    </g>
    <g class="e887e1c9-ce55-4534-940e-e037be6d7570">
      <path class="f2820dce-41aa-492e-8f8b-fb23dc1bed3e" d="M457.25,400a1.75,1.75,0,0,1-.89-.24L418.67,378a.87.87,0,0,1-.44-.71v-.07a.85.85,0,0,1,.44-.74L447.28,360a1.79,1.79,0,0,1,1.79,0l37.69,21.73a.88.88,0,0,1,.4.49h0v.28a.89.89,0,0,1-.44.75l-28.61,16.52A1.81,1.81,0,0,1,457.25,400Zm-9.07-39.68a1.22,1.22,0,0,0-.62.16L419,377a.29.29,0,0,0-.15.25.3.3,0,0,0,.15.29l37.69,21.73a1.23,1.23,0,0,0,1.23,0l28.61-16.52a.31.31,0,0,0,.15-.22v0a.28.28,0,0,0-.15-.28l-37.69-21.73A1.21,1.21,0,0,0,448.18,360.32Z"/>
    </g>
    <g class="e887e1c9-ce55-4534-940e-e037be6d7570">
      <path class="f2820dce-41aa-492e-8f8b-fb23dc1bed3e" d="M125.74,316.89a1.16,1.16,0,0,1-.57-.15l-21-12.12a.63.63,0,0,1,0-1.07l16-9.22a1.12,1.12,0,0,1,1.12,0l21,12.12a.62.62,0,0,1,.31.55h0a.64.64,0,0,1-.3.52l-16,9.22A1.12,1.12,0,0,1,125.74,316.89Zm-21.31-12.77,21,12.13a.56.56,0,0,0,.56,0L142,307a0,0,0,0,0,0,0l-21-12.13a.56.56,0,0,0-.56,0l-16,9.22-.15.33Z"/>
    </g>
    <g class="e887e1c9-ce55-4534-940e-e037be6d7570">
      <path class="f2820dce-41aa-492e-8f8b-fb23dc1bed3e" d="M489.73,117.16a1.15,1.15,0,0,1-.56-.15l-21-12.12a.65.65,0,0,1-.31-.5.64.64,0,0,1,.31-.57l16-9.22a1.12,1.12,0,0,1,1.12,0l21,12.12a.62.62,0,0,1,.31.55h0a.62.62,0,0,1-.31.52l-16,9.22A1.16,1.16,0,0,1,489.73,117.16Zm-21.31-12.77,21,12.13a.56.56,0,0,0,.56,0l16-9.26a0,0,0,0,0,0,0L485,95.09a.56.56,0,0,0-.56,0l-16,9.22-.14.33Z"/>
    </g>
    <g class="e887e1c9-ce55-4534-940e-e037be6d7570">
      <path class="f2820dce-41aa-492e-8f8b-fb23dc1bed3e" d="M21.9,150.5a1.11,1.11,0,0,1-.56-.14l-21-12.13a.61.61,0,0,1-.31-.5.62.62,0,0,1,.31-.57l16-9.22a1.14,1.14,0,0,1,1.13,0l21,12.13a.63.63,0,0,1,.31.55h0a.64.64,0,0,1-.31.52l-16,9.22A1.08,1.08,0,0,1,21.9,150.5ZM.59,137.74l21,12.12a.56.56,0,0,0,.56,0l16-9.25s0,0,0-.05l-21-12.12a.54.54,0,0,0-.55,0l-16,9.21L.45,138Z"/>
    </g>
    <g class="e887e1c9-ce55-4534-940e-e037be6d7570">
      <path class="f2820dce-41aa-492e-8f8b-fb23dc1bed3e" d="M319.37,293a1.12,1.12,0,0,1-.56-.15l-21-12.12a.61.61,0,0,1-.31-.5.64.64,0,0,1,.31-.57l16-9.22a1.14,1.14,0,0,1,1.13,0l21,12.13a.61.61,0,0,1,.31.55h0a.64.64,0,0,1-.31.52l-16,9.21A1.16,1.16,0,0,1,319.37,293Zm-21.31-12.76,21,12.12a.56.56,0,0,0,.56,0l16-9.25s0,0,0-.05l-21-12.13a.56.56,0,0,0-.56,0l-16,9.22-.14.33Z"/>
    </g>
    <g class="e887e1c9-ce55-4534-940e-e037be6d7570">
      <path class="f2820dce-41aa-492e-8f8b-fb23dc1bed3e" d="M271.51,179.59a1.12,1.12,0,0,1-.56-.15l-21-12.13a.61.61,0,0,1,0-1.06l16-9.22a1.14,1.14,0,0,1,1.13,0l21,12.12a.63.63,0,0,1,.31.55h0a.62.62,0,0,1-.31.52l-16,9.22A1.16,1.16,0,0,1,271.51,179.59ZM250.2,166.82l21,12.13a.56.56,0,0,0,.56,0l16-9.26a.06.06,0,0,0,0-.05l-21-12.12a.56.56,0,0,0-.56,0l-16,9.22-.14.33Z"/>
    </g>
    <path class="b5220f89-265e-46bf-b368-08f4b46d11a1" d="M221.69,333.9l-.52-1L232,327.24a7.15,7.15,0,0,0,3.84-6.35v-30a8.31,8.31,0,0,1,4.16-7.19l59.06-34a14.47,14.47,0,0,1,7.21-1.93H333a13.32,13.32,0,0,0,6.71-1.81l161.93-94.32a3.18,3.18,0,0,0-.08-5.53L446.93,116.5l.55-1,54.57,29.62a4.3,4.3,0,0,1,.11,7.5L340.23,246.94a14.46,14.46,0,0,1-7.28,2H306.23a13.28,13.28,0,0,0-6.65,1.78l-59.06,34a7.2,7.2,0,0,0-3.58,6.21v30a8.27,8.27,0,0,1-4.45,7.35Z"/>
    <path class="faaec164-6ae7-488e-8154-c6c0f9283e26" d="M225.9,341l-.57-1,27.76-16a13.56,13.56,0,0,1,6.78-1.82h25.5a12.53,12.53,0,0,0,6.18-1.64l22.79-13.1a9.84,9.84,0,0,1,9.77,0l27.4,15.67a8.72,8.72,0,0,0,8.66,0l38.64-22.31.57,1-38.64,22.31a9.83,9.83,0,0,1-9.79,0l-27.4-15.67a8.73,8.73,0,0,0-8.64,0L292.12,321.5a13.59,13.59,0,0,1-6.75,1.8h-25.5a12.5,12.5,0,0,0-6.21,1.66Z"/>
    <path class="abbf44e8-46d7-4c19-8759-07f9eebbd37d" d="M215.76,328.9l-.62-.95,6.18-4a5.72,5.72,0,0,0,2.61-4.81V295.8a5.76,5.76,0,0,0-2.8-4.92l-154-91.51a6.89,6.89,0,0,1-3.35-5.9V173.13a6.83,6.83,0,0,1,3.61-6l99.23-53.48.54,1L67.92,168.09a5.73,5.73,0,0,0-3,5v20.34a5.75,5.75,0,0,0,2.8,4.92l154,91.51a6.91,6.91,0,0,1,3.35,5.9v23.33a6.83,6.83,0,0,1-3.13,5.76Z"/>
    <path class="a2d29d9d-cd27-4bf3-aa0f-48a42b8eb13f" d="M126.8,176.88v0Z"/>
    <g>
      <path class="a6b9ab26-8635-492d-9bc0-e54f43d2985d" d="M269.34,174.47l-77.11-44.34a4,4,0,0,0-4,0l-75.61,43.66a1.57,1.57,0,0,0-.78,1.24v.12a1.54,1.54,0,0,0,.78,1.36l77.11,44.34a4,4,0,0,0,4,0l75.61-43.66a1.51,1.51,0,0,0,.78-1.3A1.54,1.54,0,0,0,269.34,174.47Z"/>
      <path class="b3004d0c-d977-4d99-907b-86715941ea58" d="M268.69,163.72l-76.46-44a4,4,0,0,0-4,0L113.35,163h-1.5v1.79a1.57,1.57,0,0,0,.78,1.36l77.11,44.33a4,4,0,0,0,4,0l75.61-43.65a1.53,1.53,0,0,0,.78-1.31v-1.79Z"/>
      <path class="af1436b4-4a11-4e5a-ad19-ddb836353cff" d="M269.34,162.3,192.23,118a4,4,0,0,0-4,0l-75.61,43.65a1.58,1.58,0,0,0-.78,1.24V163a1.55,1.55,0,0,0,.78,1.36l77.11,44.33a4,4,0,0,0,4,0L269.34,165a1.58,1.58,0,0,0,0-2.73Z"/>
      <path class="b36eb70a-b759-438e-875a-a04a878475d6" d="M260.59,161.51l-68.5-39.39a3.55,3.55,0,0,0-3.54,0L121.38,160.9a1.41,1.41,0,0,0-.7,1.1v.12a1.36,1.36,0,0,0,.7,1.2l68.5,39.39a3.5,3.5,0,0,0,3.54,0l67.17-38.78a1.39,1.39,0,0,0,0-2.42Z"/>
      <path class="ab8e9e65-ab4f-4585-86dc-c5e9dd53fb5b" d="M191.52,196.83a3.48,3.48,0,0,1-1.71-.46l-55.16-31.72a1.69,1.69,0,0,1-.85-1.46V163a1.67,1.67,0,0,1,.84-1.3l54.09-31.23a3.45,3.45,0,0,1,3.42,0l55.16,31.72a1.68,1.68,0,0,1,.84,1.54,1.65,1.65,0,0,1-.84,1.4l-54.09,31.23A3.48,3.48,0,0,1,191.52,196.83Zm-1.07-65.66a2.29,2.29,0,0,0-1.14.3L135.22,162.7a.56.56,0,0,0,0,1l55.16,31.71a2.27,2.27,0,0,0,2.28,0l54.09-31.23a.53.53,0,0,0,.28-.45.54.54,0,0,0-.27-.51h0l-55.16-31.72A2.29,2.29,0,0,0,190.45,131.17Z"/>
      <path class="bec50edf-21ab-4fe3-a1f8-16446f7c957c" d="M261.29,113.58v19.2h0a1.36,1.36,0,0,1-.69,1.14l-67.17,38.78a3.53,3.53,0,0,1-3.54,0l-68.5-39.39a1.38,1.38,0,0,1-.7-1.27h0V112.93a1.36,1.36,0,0,0,.7,1.2l68.5,39.39a3.5,3.5,0,0,0,3.54,0l67.17-38.78a1.35,1.35,0,0,0,.7-1.16Z"/>
      <path class="f430f6a7-6bf9-4db3-8da2-1a16d22393ba" d="M260.59,112.32l-68.5-39.39a3.5,3.5,0,0,0-3.54,0l-67.17,38.78a1.41,1.41,0,0,0-.7,1.1v.12a1.36,1.36,0,0,0,.7,1.2l68.5,39.39a3.5,3.5,0,0,0,3.54,0l67.17-38.78a1.39,1.39,0,0,0,0-2.42Z"/>
      <path class="ad35f1e5-9a1c-47dd-95a7-a974d552d089" d="M257.12,93.92V112h0a1.3,1.3,0,0,1-.65,1.07l-63.18,36.48a3.35,3.35,0,0,1-3.33,0l-64.43-37a1.29,1.29,0,0,1-.66-1.19h0v-18a1.3,1.3,0,0,0,.66,1.14l64.43,37a3.31,3.31,0,0,0,3.33,0L256.46,95a1.29,1.29,0,0,0,.65-1.1Z"/>
      <path class="a67fc1f7-148c-48af-a599-7e4b186229b3" d="M261.29,85.79V105h0a1.36,1.36,0,0,1-.69,1.14L193.42,144.9a3.53,3.53,0,0,1-3.54,0l-68.5-39.39a1.38,1.38,0,0,1-.7-1.27h0V85.13a1.37,1.37,0,0,0,.7,1.21l68.5,39.39a3.55,3.55,0,0,0,3.54,0L260.59,87a1.35,1.35,0,0,0,.7-1.16Z"/>
      <path class="f8c580e5-f99e-4a99-9881-6d90ab2a16f6" d="M260.59,84.53l-68.5-39.4a3.53,3.53,0,0,0-3.54,0L121.38,83.92a1.41,1.41,0,0,0-.7,1.1v.11a1.37,1.37,0,0,0,.7,1.21l68.5,39.39a3.55,3.55,0,0,0,3.54,0L260.59,87a1.39,1.39,0,0,0,0-2.42Z"/>
      <path class="bf9c9aec-aea6-456c-a37c-b0dd26189eb8" d="M257.12,66.05V84.11h0a1.3,1.3,0,0,1-.65,1.07l-63.18,36.48a3.31,3.31,0,0,1-3.33,0l-64.43-37a1.32,1.32,0,0,1-.66-1.2h0v-18a1.3,1.3,0,0,0,.66,1.14L190,103.62a3.35,3.35,0,0,0,3.33,0l63.18-36.48a1.29,1.29,0,0,0,.65-1.09Z"/>
      <path class="b1d6916a-17d0-4e1d-b608-30f52a870230" d="M261.29,57.91v19.2h0a1.36,1.36,0,0,1-.69,1.14L193.42,117a3.55,3.55,0,0,1-3.54,0l-68.5-39.39a1.38,1.38,0,0,1-.7-1.27h0V57.26a1.39,1.39,0,0,0,.7,1.21l68.5,39.38a3.5,3.5,0,0,0,3.54,0l67.17-38.78a1.34,1.34,0,0,0,.7-1.16Z"/>
      <path class="e1ec3815-0a8e-46fc-bf96-7b9aa4018ec3" d="M260.59,56.65l-68.5-39.39a3.55,3.55,0,0,0-3.54,0L121.38,56a1.41,1.41,0,0,0-.7,1.11v.11a1.39,1.39,0,0,0,.7,1.21l68.5,39.38a3.5,3.5,0,0,0,3.54,0l67.17-38.78a1.39,1.39,0,0,0,0-2.42Z"/>
      <g>
        <path class="f9a11093-8367-48e5-91c0-beef023bb34a" d="M183.33,104.05a.54.54,0,0,1-.27-.07L140.42,79.47a.54.54,0,0,1-.19-.73.53.53,0,0,1,.72-.19l42.64,24.51a.54.54,0,0,1,.2.73A.53.53,0,0,1,183.33,104.05Z"/>
        <path class="bef8f7f7-2e20-4827-bfc6-6774d0787669" d="M183.33,132.2a.54.54,0,0,1-.27-.07l-42.64-24.51a.54.54,0,0,1-.19-.73.53.53,0,0,1,.72-.19l42.64,24.51a.54.54,0,0,1,.2.73A.53.53,0,0,1,183.33,132.2Z"/>
        <path class="f7477dda-691a-4c46-9f53-d19319b8e33e" d="M183.33,158.67a.54.54,0,0,1-.27-.07l-42.64-24.52a.52.52,0,0,1-.19-.72.54.54,0,0,1,.72-.2l42.64,24.52a.53.53,0,0,1,.2.72A.54.54,0,0,1,183.33,158.67Z"/>
      </g>
    </g>
    <g>
      <path class="f1edd447-ad0d-4359-be11-e1ca9d261d19" d="M464.94,158.17l-77.11-44.34a4,4,0,0,0-4,0l-75.6,43.65a1.57,1.57,0,0,0-.79,1.24v.13a1.54,1.54,0,0,0,.79,1.36l77.1,44.33a4,4,0,0,0,4,0l75.61-43.65a1.58,1.58,0,0,0,0-2.73Z"/>
      <path class="bf1d97d5-2ce0-4c58-8bf6-6545942c8eac" d="M464.29,147.42l-76.46-44a4,4,0,0,0-4,0L309,146.7h-1.5v1.78a1.53,1.53,0,0,0,.79,1.36l77.1,44.34a4,4,0,0,0,4,0l75.61-43.66a1.51,1.51,0,0,0,.78-1.3v-1.79Z"/>
      <path class="af45eaa3-e670-4a07-86d1-d25669bede45" d="M464.94,146l-77.11-44.34a4,4,0,0,0-4,0l-75.6,43.65a1.55,1.55,0,0,0-.79,1.24v.13a1.55,1.55,0,0,0,.79,1.36l77.1,44.33a4,4,0,0,0,4,0l75.61-43.65a1.58,1.58,0,0,0,0-2.73Z"/>
      <path class="b1a740e3-0cad-4a82-a18d-6d535804b099" d="M456.2,145.21l-68.51-39.39a3.53,3.53,0,0,0-3.54,0L317,144.61a1.37,1.37,0,0,0-.69,1.1.45.45,0,0,0,0,.11A1.37,1.37,0,0,0,317,147l68.5,39.39a3.55,3.55,0,0,0,3.54,0l67.18-38.78a1.37,1.37,0,0,0,.69-1.16A1.39,1.39,0,0,0,456.2,145.21Z"/>
      <path class="f89dff1b-fb1e-4170-a092-1d95e7bed81a" d="M387.12,180.53a3.38,3.38,0,0,1-1.71-.46l-55.16-31.71a1.7,1.7,0,0,1-.85-1.47l0-.17a1.65,1.65,0,0,1,.83-1.29l54.09-31.23a3.42,3.42,0,0,1,3.42,0l55.16,31.72h0a1.68,1.68,0,0,1,.85,1.53,1.66,1.66,0,0,1-.85,1.41l-54.09,31.22A3.35,3.35,0,0,1,387.12,180.53Zm-1.07-65.66a2.32,2.32,0,0,0-1.14.31l-54.09,31.23a.56.56,0,0,0-.28.44.54.54,0,0,0,.28.52L386,179.09a2.27,2.27,0,0,0,2.28,0l54.1-31.23a.5.5,0,0,0,.27-.45.54.54,0,0,0-.27-.51h0L387.2,115.18A2.26,2.26,0,0,0,386.05,114.87Z"/>
      <path class="b828f638-843f-492e-a491-f10755ff61e7" d="M456.9,97.28v19.2h0a1.42,1.42,0,0,1-.69,1.14L389,156.4a3.53,3.53,0,0,1-3.54,0L317,117a1.34,1.34,0,0,1-.69-1.26h0V96.63a1.37,1.37,0,0,0,.7,1.21l68.5,39.39a3.55,3.55,0,0,0,3.54,0L456.2,98.45a1.37,1.37,0,0,0,.69-1.17Z"/>
      <path class="aa6092ec-fa30-4f15-b1af-a34055005dbe" d="M456.2,96,387.69,56.63a3.53,3.53,0,0,0-3.54,0L317,95.42a1.37,1.37,0,0,0-.69,1.1.45.45,0,0,0,0,.11,1.37,1.37,0,0,0,.7,1.21l68.5,39.39a3.55,3.55,0,0,0,3.54,0L456.2,98.45a1.37,1.37,0,0,0,.69-1.17A1.39,1.39,0,0,0,456.2,96Z"/>
      <path class="a7c2d4d2-0fbf-404c-bbcb-88beeaa65ce7" d="M452.72,77.63V95.69h0a1.32,1.32,0,0,1-.65,1.07l-63.18,36.47a3.33,3.33,0,0,1-3.33,0L321.12,96.19a1.3,1.3,0,0,1-.66-1.19h0V77a1.3,1.3,0,0,0,.66,1.14l64.43,37a3.31,3.31,0,0,0,3.33,0l63.18-36.48a1.28,1.28,0,0,0,.65-1.09Z"/>
      <path class="b14dcc50-eeee-4b93-b3fb-79cc47bb1e1f" d="M456.9,69.49v19.2h0a1.42,1.42,0,0,1-.69,1.14L389,128.61a3.5,3.5,0,0,1-3.54,0L317,89.22a1.35,1.35,0,0,1-.69-1.26h0V68.84a1.37,1.37,0,0,0,.7,1.21l68.5,39.39a3.55,3.55,0,0,0,3.54,0L456.2,70.65a1.35,1.35,0,0,0,.69-1.16Z"/>
      <path class="f5f27564-1506-44d1-b6e5-77faf2739a46" d="M456.2,68.23,387.69,28.84a3.53,3.53,0,0,0-3.54,0L317,67.63a1.37,1.37,0,0,0-.69,1.1.41.41,0,0,0,0,.11,1.37,1.37,0,0,0,.7,1.21l68.5,39.39a3.55,3.55,0,0,0,3.54,0L456.2,70.65a1.35,1.35,0,0,0,.69-1.16A1.39,1.39,0,0,0,456.2,68.23Z"/>
      <path class="ac73a01a-cd47-4a01-bd42-84e14c52a2b6" d="M452.72,49.76V67.81h0a1.3,1.3,0,0,1-.65,1.07l-63.18,36.48a3.35,3.35,0,0,1-3.33,0l-64.43-37a1.29,1.29,0,0,1-.66-1.19h0v-18a1.3,1.3,0,0,0,.66,1.14l64.43,37a3.31,3.31,0,0,0,3.33,0l63.18-36.47a1.29,1.29,0,0,0,.65-1.09Z"/>
      <path class="ad6ee622-2979-4a08-823e-117d5bb892c4" d="M456.9,41.62v19.2h0A1.39,1.39,0,0,1,456.2,62L389,100.73a3.53,3.53,0,0,1-3.54,0L317,61.35a1.35,1.35,0,0,1-.69-1.27h0V41a1.36,1.36,0,0,0,.7,1.2l68.5,39.39a3.5,3.5,0,0,0,3.54,0L456.2,42.78a1.37,1.37,0,0,0,.69-1.16Z"/>
      <path class="f2fb0004-a0e4-49e4-9e77-0f9c401456dd" d="M456.2,40.36,387.69,1a3.5,3.5,0,0,0-3.54,0L317,39.75a1.37,1.37,0,0,0-.69,1.1.49.49,0,0,0,0,.12,1.36,1.36,0,0,0,.7,1.2l68.5,39.39a3.5,3.5,0,0,0,3.54,0L456.2,42.78a1.41,1.41,0,0,0,0-2.42Z"/>
      <g>
        <path class="b9ea3c4f-7f8c-45ad-baf2-8e40adb5ec60" d="M378.93,87.76a.54.54,0,0,1-.27-.07L336,63.17a.52.52,0,0,1-.2-.72.54.54,0,0,1,.72-.2l42.64,24.52a.53.53,0,0,1,.2.72A.54.54,0,0,1,378.93,87.76Z"/>
        <path class="be058555-4fdd-4ed2-a63b-a6ee6fcc2a9a" d="M378.93,115.91a.54.54,0,0,1-.27-.07L336,91.33a.53.53,0,1,1,.52-.92l42.64,24.51a.53.53,0,0,1,.2.72A.52.52,0,0,1,378.93,115.91Z"/>
        <path class="e31b67df-82f9-4a96-8a31-9565d011a637" d="M378.93,142.38a.68.68,0,0,1-.27-.07L336,117.79a.52.52,0,0,1-.2-.72.53.53,0,0,1,.72-.2l42.64,24.52a.53.53,0,0,1,.2.72A.54.54,0,0,1,378.93,142.38Z"/>
      </g>
    </g>
    <g>
      <path class="aeb8c657-d563-4732-b880-9a58ba10c987" d="M531.07,343.33,454,299a4,4,0,0,0-4,0l-75.6,43.65a1.57,1.57,0,0,0-.79,1.25V344a1.54,1.54,0,0,0,.79,1.36l77.1,44.33a4,4,0,0,0,4,0l75.61-43.65a1.53,1.53,0,0,0,.78-1.31A1.55,1.55,0,0,0,531.07,343.33Z"/>
      <path class="a0cf8683-2091-4494-841f-246d7daa4b92" d="M530.42,332.58l-76.46-44a4,4,0,0,0-4,0l-74.89,43.24h-1.5v1.78a1.53,1.53,0,0,0,.79,1.36l77.1,44.34a4,4,0,0,0,4,0l75.61-43.66a1.51,1.51,0,0,0,.78-1.3v-1.79Z"/>
      <path class="e94fdc55-2d35-4201-8442-63deb924a144" d="M531.07,331.17,454,286.83a4,4,0,0,0-4,0l-75.6,43.65a1.55,1.55,0,0,0-.79,1.24v.13a1.55,1.55,0,0,0,.79,1.36l77.1,44.33a4,4,0,0,0,4,0l75.61-43.65a1.58,1.58,0,0,0,0-2.73Z"/>
      <path class="e38548ef-aa42-41b5-9943-176691f3d9ab" d="M522.33,330.37,453.82,291a3.53,3.53,0,0,0-3.54,0l-67.17,38.78a1.37,1.37,0,0,0-.69,1.1.45.45,0,0,0,0,.11,1.37,1.37,0,0,0,.7,1.21l68.5,39.39a3.55,3.55,0,0,0,3.54,0l67.18-38.78a1.37,1.37,0,0,0,.69-1.16A1.39,1.39,0,0,0,522.33,330.37Z"/>
      <path class="b1b9e434-6e13-44bd-91d4-61fdcb5d4643" d="M453.25,365.69a3.38,3.38,0,0,1-1.71-.46l-55.16-31.71a1.69,1.69,0,0,1-.84-1.47v-.17a1.65,1.65,0,0,1,.83-1.29l54.09-31.23a3.45,3.45,0,0,1,3.42,0l55.16,31.72a1.68,1.68,0,0,1,.85,1.53,1.66,1.66,0,0,1-.85,1.41L455,365.23A3.32,3.32,0,0,1,453.25,365.69ZM452.18,300a2.32,2.32,0,0,0-1.14.31L397,331.57a.56.56,0,0,0-.28.44.54.54,0,0,0,.28.52l55.16,31.72a2.27,2.27,0,0,0,2.28,0L508.48,333a.51.51,0,0,0,.28-.45.54.54,0,0,0-.27-.51h0l-55.16-31.72A2.26,2.26,0,0,0,452.18,300Z"/>
      <path class="afcb2221-b5a1-42da-ad80-2898dac431c1" d="M523,282.45v19.19h0a1.42,1.42,0,0,1-.69,1.14l-67.18,38.78a3.53,3.53,0,0,1-3.54,0l-68.5-39.4a1.34,1.34,0,0,1-.69-1.26h0V281.79a1.37,1.37,0,0,0,.7,1.21l68.5,39.39a3.55,3.55,0,0,0,3.54,0l67.18-38.78a1.37,1.37,0,0,0,.69-1.16Z"/>
      <path class="e3d787de-2f31-4479-9bc0-c5ff37a04afa" d="M522.33,281.18l-68.51-39.39a3.53,3.53,0,0,0-3.54,0l-67.17,38.78a1.37,1.37,0,0,0-.69,1.1.45.45,0,0,0,0,.11,1.37,1.37,0,0,0,.7,1.21l68.5,39.39a3.55,3.55,0,0,0,3.54,0l67.18-38.78a1.37,1.37,0,0,0,.69-1.16A1.39,1.39,0,0,0,522.33,281.18Z"/>
      <path class="a0add5b7-ba3b-4839-be29-e617430d1a5e" d="M518.85,262.79v18.06h0a1.32,1.32,0,0,1-.65,1.07L455,318.39a3.33,3.33,0,0,1-3.33,0l-64.43-37a1.3,1.3,0,0,1-.66-1.19h0v-18a1.3,1.3,0,0,0,.66,1.14l64.43,37a3.31,3.31,0,0,0,3.33,0l63.18-36.48a1.28,1.28,0,0,0,.65-1.09Z"/>
      <path class="b0b246da-ded3-43f9-95ac-91aead0ad15b" d="M523,254.65v19.2h0a1.42,1.42,0,0,1-.69,1.14l-67.18,38.78a3.5,3.5,0,0,1-3.54,0l-68.5-39.39a1.35,1.35,0,0,1-.69-1.26h0V254a1.37,1.37,0,0,0,.7,1.21l68.5,39.39a3.55,3.55,0,0,0,3.54,0l67.18-38.78a1.38,1.38,0,0,0,.69-1.17Z"/>
      <path class="ff594920-55e4-4492-8939-1cc7beeaad4d" d="M522.33,253.39,453.82,214a3.53,3.53,0,0,0-3.54,0l-67.17,38.78a1.37,1.37,0,0,0-.69,1.1.45.45,0,0,0,0,.11,1.37,1.37,0,0,0,.7,1.21l68.5,39.39a3.55,3.55,0,0,0,3.54,0l67.18-38.78a1.41,1.41,0,0,0,0-2.43Z"/>
      <path class="efaa4cb8-1fff-4726-a89a-09ee60220177" d="M518.85,234.92V253h0a1.3,1.3,0,0,1-.65,1.07L455,290.52a3.31,3.31,0,0,1-3.33,0l-64.43-37a1.29,1.29,0,0,1-.66-1.19h0v-18a1.3,1.3,0,0,0,.66,1.14l64.43,37a3.31,3.31,0,0,0,3.33,0L518.19,236a1.29,1.29,0,0,0,.65-1.09Z"/>
      <path class="a2cb09e7-2784-4aea-8283-972959e27f55" d="M523,226.78V246h0a1.39,1.39,0,0,1-.69,1.14l-67.18,38.78a3.53,3.53,0,0,1-3.54,0l-68.5-39.39a1.35,1.35,0,0,1-.69-1.27h0V226.13a1.36,1.36,0,0,0,.7,1.2l68.5,39.39a3.5,3.5,0,0,0,3.54,0l67.18-38.78a1.37,1.37,0,0,0,.69-1.16Z"/>
      <path class="fa37106e-6795-46ac-86a6-2eeb7572e0f4" d="M522.33,225.52l-68.51-39.39a3.5,3.5,0,0,0-3.54,0l-67.17,38.78a1.37,1.37,0,0,0-.69,1.1.49.49,0,0,0,0,.12,1.36,1.36,0,0,0,.7,1.2l68.5,39.39a3.5,3.5,0,0,0,3.54,0l67.18-38.78a1.41,1.41,0,0,0,0-2.42Z"/>
      <g>
        <path class="b40f32f0-5ee7-4660-ae00-102750bc5b29" d="M445.06,272.92a.54.54,0,0,1-.27-.07l-42.63-24.52a.52.52,0,0,1-.2-.72.53.53,0,0,1,.72-.19l42.64,24.51a.53.53,0,0,1,.2.72A.54.54,0,0,1,445.06,272.92Z"/>
        <path class="bf586b7a-6989-41c9-95f8-f2f52a40a611" d="M445.06,301.07a.54.54,0,0,1-.27-.07l-42.63-24.51a.53.53,0,1,1,.52-.92l42.64,24.51a.53.53,0,0,1,.2.72A.52.52,0,0,1,445.06,301.07Z"/>
        <path class="b13277a8-1a0b-4db8-b468-d77e057fd2f5" d="M445.06,327.54a.68.68,0,0,1-.27-.07L402.16,303a.52.52,0,0,1-.2-.72.53.53,0,0,1,.72-.2l42.64,24.52a.53.53,0,0,1,.2.72A.54.54,0,0,1,445.06,327.54Z"/>
      </g>
    </g>
    <g>
      <g>
        <g>
          <path class="f84fdeb2-b223-4a25-9e6e-cd3c6b81e90c" d="M247.17,344.47a.74.74,0,0,0-.37-.66l-46.29-26.94a1.87,1.87,0,0,0-1.86,0l-35.32,20.2a.71.71,0,0,0-.36.61v.07a.71.71,0,0,0,.36.59l46.3,26.94a1.85,1.85,0,0,0,1.86,0l35.31-20.19a.76.76,0,0,0,.37-.59v0Zm0,0h0Z"/>
          <path class="bd2c2384-2927-455d-a277-5aa2f4542d47" d="M209.64,361.55a1.71,1.71,0,0,1-.85-.22l-38.51-22.41a.75.75,0,0,1-.37-.61v-.07a.71.71,0,0,1,.37-.63l29.38-16.8a1.68,1.68,0,0,1,1.68,0l38.52,22.41a.75.75,0,0,1,.36.53h0v.14a.76.76,0,0,1-.38.63l-29.37,16.8A1.67,1.67,0,0,1,209.64,361.55Zm-9.15-40.68a1.31,1.31,0,0,0-.69.19l-29.38,16.8a.44.44,0,0,0-.23.38v.06a.46.46,0,0,0,.23.37l38.51,22.41a1.44,1.44,0,0,0,1.41,0l29.37-16.8a.47.47,0,0,0,.23-.34v-.06a.46.46,0,0,0-.23-.42L201.2,321.06A1.48,1.48,0,0,0,200.49,320.87Z"/>
          <path class="ac9dbb19-841b-4437-a69d-3287843e92df" d="M247.17,344.5l0,9.15a.7.7,0,0,1-.37.64l-35.31,20.2a1.85,1.85,0,0,1-1.86,0l-46.3-26.94a.73.73,0,0,1-.36-.64l0-9.16a.71.71,0,0,0,.36.59l46.3,26.94a1.85,1.85,0,0,0,1.86,0l35.31-20.2A.73.73,0,0,0,247.17,344.5Z"/>
        </g>
        <path class="a35e4ef5-14e7-4f9e-bf5b-e813b3b6c2b9" d="M204,367.21l-4.29-2.46a1.4,1.4,0,0,1-.69-1.07h0c0-.38.31-.51.69-.29l4.29,2.45a1.44,1.44,0,0,1,.68,1.08h0C204.68,367.29,204.37,367.42,204,367.21Z"/>
      </g>
      <path class="acbe30c4-7ab3-4085-b13b-29d8dc7de392" d="M200.33,338.29a.57.57,0,0,1-.57-.57V233.19a.57.57,0,1,1,1.13,0V337.72A.57.57,0,0,1,200.33,338.29Z"/>
      <path class="e509193d-99cf-492c-ba38-90316a4c7b5b" d="M204.61,340.79a.57.57,0,0,1-.56-.57V235.69a.57.57,0,1,1,1.13,0V340.22A.57.57,0,0,1,204.61,340.79Z"/>
      <path class="f7669bb2-1a81-4a1d-ae45-37f613fd2dcd" d="M209.07,343.38a.57.57,0,0,1-.57-.57V238.28a.57.57,0,0,1,.57-.57.58.58,0,0,1,.57.57V342.81A.58.58,0,0,1,209.07,343.38Z"/>
      <g>
        <path class="b04725c3-bfc5-4940-a1f4-098d05d23738" d="M283.9,273.89c0,4.9-1.75,8.4-4.68,10.18l-23.1,13.17c2.65-1.87,4.24-5.25,4.24-9.89,0-11.16-9.06-25.45-20.2-32-.45-.25-.89-.48-1.34-.7-3.84-15.17-15.81-31.59-30-39.86a40.53,40.53,0,0,0-7.91-3.61c-5.47-1.76-10.34-1.73-14.21-.12l0,0a13.66,13.66,0,0,0-4.92,3.52c-5.45-2.5-10.32-2.82-14-1.22a10.49,10.49,0,0,0-5.66,6.12c-.38-.22-.72-.51-1.07-.73-4.61-2.67-8.76-3.1-11.58-1.53l23.44-13.39c2.61-1.51,6.37-1.32,10.63.87.34.18.7.38,1.05.59s.73.5,1.08.74a11.31,11.31,0,0,1,2.31-3.77l.1-.09.13-.14c3.58-3.58,9.47-4.16,16.32-1.24.26.1.51.22.77.34a13.58,13.58,0,0,1,2.73-2.36,6.08,6.08,0,0,1,.64-.39l.19-.12a15.61,15.61,0,0,1,6.69-1.84c4.86-.27,10.63,1.29,16.81,4.9,14.19,8.27,26.15,24.67,30,39.86.45.21.86.43,1.31.69C274.87,248.44,283.9,262.73,283.9,273.89Z"/>
        <path class="bf972a0a-1d51-4e15-905e-3fa4638f87b2" d="M215.55,196.47a15.61,15.61,0,0,0-6.69,1.84l-.19.12a6.08,6.08,0,0,0-.64.39,13.58,13.58,0,0,0-2.73,2.36c-.26-.12-.51-.24-.77-.34-5.92-2.52-11.12-2.42-14.73,0v0l-22,12.63-1.44.78s19.82,8.1,20.3,7.61c.25-.24,7.21-5.4,14.27-10.59l14.68-10.8A34,34,0,0,0,215.55,196.47Z"/>
        <path class="b464f1fe-9898-4561-a6ac-ae103979ac19" d="M262.39,241.23l-23.57,13.45-25.48-28.37-27.66-14.63,1-.57,0,0,17.83-10.25,3.5-2,.28-.16.36-.23.19-.12c5.75-3.17,14.14-2.41,23.5,3.06C246.55,209.64,258.51,226,262.39,241.23Z"/>
        <path class="b7050551-cea4-4178-a263-e97cd576e8c4" d="M240.16,255.38c-.45-.26-.89-.48-1.34-.7-3.85-15.18-15.81-31.59-30-39.86-11.58-6.74-21.63-6.33-27.07-.19-9.29-4.26-16.89-2.2-19.62,4.9-.39-.22-.74-.51-1.09-.73-4.61-2.68-8.74-3.09-11.58-1.53-2.41,1.3-3.88,4-3.88,7.95,0,8.53,6.94,19.47,15.46,24.43l79.12,46.13c5.76,3.37,11,4,14.66,2.23a11.51,11.51,0,0,0,1.31-.77c2.64-1.87,4.23-5.25,4.23-9.89C260.36,276.18,251.29,261.9,240.16,255.38Z"/>
        <path class="aac7afcc-46ba-45d9-808e-c29976935c25" d="M283.9,273.89c0,4.9-1.75,8.4-4.68,10.18l-23.1,13.17c2.65-1.87,4.24-5.25,4.24-9.89,0-11.16-9.06-25.45-20.2-32-.45-.25-.89-.48-1.34-.7l23.57-13.45c.45.21.86.43,1.31.69C274.87,248.44,283.9,262.73,283.9,273.89Z"/>
      </g>
    </g>
    <g>
      <path class="f5146f25-6172-478a-9b96-6bb85d6fb61c" d="M328.94,346.81l-13.3-7.7a.83.83,0,0,0-.75,0l-11.33,6.56a.25.25,0,0,0-.13.21v9.77a.33.33,0,0,0,.19.26l13.3,7.7a.83.83,0,0,0,.75,0L329,357a.21.21,0,0,0,.13-.17v-9.81A.32.32,0,0,0,328.94,346.81Z"/>
      <path class="bb453639-ad8e-4808-a440-4f8aaafadbc8" d="M329.13,347.06v9.8a.32.32,0,0,0-.19-.25l-13.3-7.71a.8.8,0,0,0-.75,0l-11.33,6.56a.25.25,0,0,0-.13.18v-9.77a.25.25,0,0,1,.13-.21l11.33-6.56a.83.83,0,0,1,.75,0l13.3,7.7A.32.32,0,0,1,329.13,347.06Z"/>
      <path class="e1f8d3f4-33af-4262-b574-95b65f45174d" d="M328.94,346.81l-13.3-7.7a.83.83,0,0,0-.75,0l-11.33,6.56a.25.25,0,0,0-.13.21.34.34,0,0,0,.19.23l13.3,7.71a.83.83,0,0,0,.75,0L329,347.25a.22.22,0,0,0,.13-.19h0A.32.32,0,0,0,328.94,346.81Z"/>
    </g>
    <g>
      <path class="a58224ff-a6d5-4819-abcc-06b60f5df82f" d="M531.51,175.44l-13.3-7.71a.83.83,0,0,0-.75,0l-11.33,6.56a.2.2,0,0,0-.13.2v9.78a.31.31,0,0,0,.19.25l13.29,7.71a.82.82,0,0,0,.76,0l11.33-6.56a.25.25,0,0,0,.13-.18v-9.8A.32.32,0,0,0,531.51,175.44Z"/>
      <path class="a776a1e6-c19a-489f-a09e-e8acd6d0f96e" d="M531.7,175.69v9.79a.38.38,0,0,0-.19-.25l-13.3-7.7a.83.83,0,0,0-.75,0l-11.33,6.57a.2.2,0,0,0-.13.18v-9.78a.2.2,0,0,1,.13-.2l11.33-6.56a.83.83,0,0,1,.75,0l13.3,7.71A.34.34,0,0,1,531.7,175.69Z"/>
      <path class="e183389d-c87a-4f79-9f1e-09de4ea9e903" d="M531.51,175.44l-13.3-7.71a.83.83,0,0,0-.75,0l-11.33,6.56a.2.2,0,0,0-.13.2.33.33,0,0,0,.19.24l13.29,7.7a.82.82,0,0,0,.76,0l11.33-6.56a.24.24,0,0,0,.13-.19h0A.34.34,0,0,0,531.51,175.44Z"/>
    </g>
    <g>
      <path class="e335d227-a052-43c3-a93a-d4e3e97168d3" d="M96.21,244l-8.46-4.9a.54.54,0,0,0-.48,0l-7.2,4.17a.15.15,0,0,0-.08.13v6.21a.21.21,0,0,0,.12.17l8.45,4.9a.54.54,0,0,0,.48,0l7.21-4.17a.16.16,0,0,0,.08-.12v-6.23A.22.22,0,0,0,96.21,244Z"/>
      <path class="a88092c5-037a-4774-be51-55081d9c26ad" d="M96.33,244.12v6.23a.19.19,0,0,0-.12-.16l-8.46-4.9a.54.54,0,0,0-.48,0l-7.2,4.17a.14.14,0,0,0-.08.11v-6.21a.15.15,0,0,1,.08-.13l7.2-4.17a.54.54,0,0,1,.48,0l8.46,4.9C96.29,244,96.33,244.06,96.33,244.12Z"/>
      <path class="ba3a508d-efec-4d4b-b567-12131c25a05f" d="M96.21,244l-8.46-4.9a.54.54,0,0,0-.48,0l-7.2,4.17a.15.15,0,0,0-.08.13.24.24,0,0,0,.12.15l8.45,4.9a.54.54,0,0,0,.48,0l7.21-4.17a.15.15,0,0,0,.08-.12h0C96.33,244.06,96.29,244,96.21,244Z"/>
    </g>
    <g>
      <path class="ef5a92d7-c4a5-4f55-9c62-5b78f7d6ce78" d="M91.5,121.85,83.05,117a.54.54,0,0,0-.48,0l-7.21,4.17a.17.17,0,0,0-.08.13v6.22a.21.21,0,0,0,.12.16l8.46,4.9a.54.54,0,0,0,.48,0l7.2-4.17a.14.14,0,0,0,.08-.11V122A.2.2,0,0,0,91.5,121.85Z"/>
      <path class="f7e54c3b-d025-4e1e-bfa2-831872f9cf08" d="M91.62,122v6.23c0-.06,0-.11-.12-.16l-8.45-4.9a.54.54,0,0,0-.48,0l-7.21,4.17a.17.17,0,0,0-.08.11v-6.21a.17.17,0,0,1,.08-.13l7.21-4.17a.54.54,0,0,1,.48,0l8.45,4.9A.21.21,0,0,1,91.62,122Z"/>
      <path class="a6bcbda1-3a3d-4f45-afc0-c2f45e1ea658" d="M91.5,121.85,83.05,117a.54.54,0,0,0-.48,0l-7.21,4.17a.17.17,0,0,0-.08.13.24.24,0,0,0,.12.15l8.46,4.9a.54.54,0,0,0,.48,0l7.2-4.17a.14.14,0,0,0,.08-.12h0A.21.21,0,0,0,91.5,121.85Z"/>
    </g>
    <g>
      <path class="a175acfd-1207-46fa-a6f5-15e60c34adcd" d="M306.91,200.31l-8.45-4.9a.54.54,0,0,0-.48,0l-7.21,4.17a.14.14,0,0,0-.08.13v6.21a.21.21,0,0,0,.12.17l8.46,4.9a.54.54,0,0,0,.48,0l7.2-4.18a.14.14,0,0,0,.08-.11v-6.23A.19.19,0,0,0,306.91,200.31Z"/>
      <path class="a0308ad7-183e-406c-a753-c564a926e68b" d="M307,200.47v6.22a.19.19,0,0,0-.12-.15l-8.45-4.9a.52.52,0,0,0-.48,0l-7.21,4.18a.14.14,0,0,0-.08.11v-6.21a.14.14,0,0,1,.08-.13l7.21-4.17a.54.54,0,0,1,.48,0l8.45,4.9A.19.19,0,0,1,307,200.47Z"/>
      <path class="a204c13e-d149-4e32-8726-ee5307f5ddd9" d="M306.91,200.31l-8.45-4.9a.54.54,0,0,0-.48,0l-7.21,4.17a.14.14,0,0,0-.08.13.27.27,0,0,0,.12.15l8.46,4.9a.54.54,0,0,0,.48,0l7.2-4.17a.15.15,0,0,0,.08-.12h0A.19.19,0,0,0,306.91,200.31Z"/>
    </g>
  </g>
  <g>
    <path class="a2d9600b-b181-410f-9ec9-0cfe0d84e8fb" d="M309.74,358.38l-7.44-4.31a.48.48,0,0,0-.42,0l-6.34,3.68a.13.13,0,0,0-.07.11v5.47c0,.05,0,.1.11.14l7.44,4.31a.45.45,0,0,0,.42,0l6.34-3.67s.07-.06.07-.1v-5.49A.2.2,0,0,0,309.74,358.38Z"/>
    <path class="f7ea9aba-0838-41f1-ae71-f2e2409f8b68" d="M309.85,358.52V364a.17.17,0,0,0-.11-.13l-7.44-4.32a.48.48,0,0,0-.42,0l-6.34,3.68a.12.12,0,0,0-.07.1v-5.47a.13.13,0,0,1,.07-.11l6.34-3.68a.48.48,0,0,1,.42,0l7.44,4.31C309.81,358.42,309.85,358.47,309.85,358.52Z"/>
    <path class="bf3a07ea-8a94-42b8-b6ed-05631ff9df47" d="M309.74,358.38l-7.44-4.31a.48.48,0,0,0-.42,0l-6.34,3.68a.13.13,0,0,0-.07.11.21.21,0,0,0,.11.13l7.44,4.31a.48.48,0,0,0,.42,0l6.34-3.67a.13.13,0,0,0,.07-.11h0S309.81,358.42,309.74,358.38Z"/>
  </g>
  <g>
    <path class="a1dd38d7-b89d-4321-916d-af23d81f2473" d="M115.05,353.9l-3.73-2.15a.47.47,0,0,0-.46,0l-4.94,2.85-6.78.51v3.5h0a.16.16,0,0,0,.09.15l8.83,5.1a.47.47,0,0,0,.46,0l11.63-6.71a.22.22,0,0,0,.09-.14v-3.51Z"/>
    <path class="a5b29db6-c038-43ff-aebb-7167645ce04a" d="M99.14,355.11h0a.18.18,0,0,0,.09.15l8.83,5.09a.47.47,0,0,0,.46,0l11.63-6.7a.21.21,0,0,0,.09-.15v0a.16.16,0,0,0-.09-.15l-8.83-5.1a.47.47,0,0,0-.46,0L99.23,355a.18.18,0,0,0-.09.16Zm0,0h0Z"/>
    <path class="f2820dce-41aa-492e-8f8b-fb23dc1bed3e" d="M103.7,354.49h0a.1.1,0,0,0,0,.08l5,2.86a.24.24,0,0,0,.26,0l6.53-3.76a.1.1,0,0,0,.05-.08h0a.11.11,0,0,0-.05-.09l-4.95-2.86a.24.24,0,0,0-.26,0l-6.53,3.76a.1.1,0,0,0,0,.09Zm0,0Z"/>
    <path class="bb5c9445-875b-4ba0-982e-2642237d22f4" d="M115.49,284.69l-4.95-2.86a.3.3,0,0,0-.26,0l-6.53,3.77a.09.09,0,0,0,0,.09h0c0,.38-.3,68.62,0,68.79h0a.1.1,0,0,0,0,.08l5,2.86a.24.24,0,0,0,.26,0l6.53-3.76a.1.1,0,0,0,.05-.08h0v-68.8h0A.12.12,0,0,0,115.49,284.69Z"/>
    <path class="f6bda24d-aaea-4cb5-af23-d67f5fc36309" d="M112.28,290h0a.05.05,0,0,0,0,0L110,288.68a.13.13,0,0,0-.12,0l-3,1.73a0,0,0,0,0,0,0h0v63.79h0s0,0,0,0l2.28,1.32a.15.15,0,0,0,.13,0l3-1.74s0,0,0,0S112.28,290.25,112.28,290Z"/>
  </g>
  <g>
    <path class="bc57bea1-a639-433d-89e1-36451c7e47b1" d="M363,272.27l-3.73-2.16a.47.47,0,0,0-.46,0L353.84,273l-6.77.51V277h0a.16.16,0,0,0,.09.14l8.83,5.1a.47.47,0,0,0,.46,0l11.63-6.7a.2.2,0,0,0,.09-.15v-3.51Z"/>
    <path class="f994871d-57c1-453b-b273-e878acdb7870" d="M347.06,273.47h0a.18.18,0,0,0,.09.15l8.83,5.09a.47.47,0,0,0,.46,0l11.63-6.7a.19.19,0,0,0,.09-.15v0a.18.18,0,0,0-.09-.15l-8.83-5.09a.43.43,0,0,0-.46,0l-11.63,6.7a.18.18,0,0,0-.09.16Zm0,0Z"/>
    <path class="f2820dce-41aa-492e-8f8b-fb23dc1bed3e" d="M351.62,272.86h0a.1.1,0,0,0,.05.08l4.95,2.86a.26.26,0,0,0,.27,0l6.52-3.76a.1.1,0,0,0,0-.08h0a.11.11,0,0,0,0-.09l-5-2.86a.3.3,0,0,0-.26,0l-6.53,3.76a.1.1,0,0,0-.05.1Zm0,0Z"/>
    <path class="ea0d5cf5-052a-4cd8-869b-a80b9f5890d0" d="M363.41,203.06l-5-2.86a.24.24,0,0,0-.26,0L351.67,204a.1.1,0,0,0-.05.09h0c0,.38-.3,68.62,0,68.79h0a.1.1,0,0,0,.05.08l4.95,2.86a.26.26,0,0,0,.27,0l6.52-3.76a.1.1,0,0,0,0-.08h0v-68.8h0A.1.1,0,0,0,363.41,203.06Z"/>
    <path class="b160c19a-e43b-4f44-8ff9-f7f23f6615f1" d="M360.2,208.4h0a.05.05,0,0,0,0,0L357.89,207a.13.13,0,0,0-.12,0l-3,1.73s0,0,0,0h0v63.79h0s0,0,0,0l2.29,1.32a.13.13,0,0,0,.12,0l3-1.73,0,0S360.2,208.61,360.2,208.4Z"/>
  </g>
  <g>
    <path class="b8a5e8fa-c014-4f62-abd7-0a625967b01f" d="M44.1,181l-3.73-2.16a.49.49,0,0,0-.47,0L35,181.67l-6.78.51v3.5h0a.16.16,0,0,0,.09.14l8.82,5.1a.49.49,0,0,0,.47,0l11.63-6.7a.24.24,0,0,0,.09-.15v-3.51Z"/>
    <path class="accb0036-afd0-419a-a8b6-fabab940b462" d="M28.19,182.18h0a.16.16,0,0,0,.09.15l8.82,5.09a.44.44,0,0,0,.47,0l11.63-6.7a.21.21,0,0,0,.09-.15h0a.22.22,0,0,0-.09-.16l-8.83-5.09a.44.44,0,0,0-.47,0L28.28,182a.19.19,0,0,0-.09.16Zm0,0Z"/>
    <path class="f2820dce-41aa-492e-8f8b-fb23dc1bed3e" d="M32.75,181.57h0a.09.09,0,0,0,0,.08l5,2.86a.24.24,0,0,0,.26,0l6.53-3.76a.1.1,0,0,0,.05-.08h0a.12.12,0,0,0-.05-.09l-5-2.86a.3.3,0,0,0-.26,0l-6.52,3.77a.09.09,0,0,0,0,.09Zm0,0Z"/>
    <path class="eaba5313-711f-450e-a973-2baf5b54de91" d="M44.54,111.77l-5-2.86a.24.24,0,0,0-.26,0l-6.52,3.76a.1.1,0,0,0,0,.09h0c0,.39-.3,68.62,0,68.79h0a.09.09,0,0,0,0,.08l5,2.86a.24.24,0,0,0,.26,0l6.53-3.76a.1.1,0,0,0,.05-.08h0v-68.8h0A.1.1,0,0,0,44.54,111.77Z"/>
    <path class="a2448d34-3b75-4913-807c-e831fe9263e0" d="M41.33,117.11h0s0,0,0,0L39,115.75a.13.13,0,0,0-.12,0l-3,1.74s0,0,0,0h0v63.79h0l0,0,2.28,1.32a.13.13,0,0,0,.12,0l3-1.73a.05.05,0,0,0,0,0S41.33,117.32,41.33,117.11Z"/>
  </g>
</svg>
