<?xml version="1.0" encoding="utf-8"?>
<!-- Generator: Adobe Illustrator 20.1.0, SVG Export Plug-In . SVG Version: 6.00 Build 0)  -->
<svg version="1.1" xmlns="http://www.w3.org/2000/svg" xmlns:xlink="http://www.w3.org/1999/xlink" x="0px" y="0px"
	 viewBox="0 0 1130 558.8" style="enable-background:new 0 0 1130 558.8;" xml:space="preserve">
<style type="text/css">
	
		.st0{fill-rule:evenodd;clip-rule:evenodd;fill:#BC1723;stroke:#80C9FF;stroke-linecap:round;stroke-linejoin:round;stroke-miterlimit:10;}
	.st1{fill-rule:evenodd;clip-rule:evenodd;fill:none;stroke:#EDEDED;stroke-miterlimit:10;}
	
		.st2{fill-rule:evenodd;clip-rule:evenodd;fill:#FFFFFF;stroke:#80C9FF;stroke-width:2;stroke-linecap:round;stroke-linejoin:round;stroke-miterlimit:10;}
	.st3{fill-rule:evenodd;clip-rule:evenodd;fill:#EDEDED;}
	.st4{fill:#FFFFFF;stroke:#288EEA;stroke-width:2;stroke-linecap:round;stroke-miterlimit:10;}
	.st5{fill:#FFFFFF;stroke:#288EEA;stroke-linecap:round;stroke-miterlimit:10;}
	.st6{fill:none;stroke:#288EEA;stroke-width:2;stroke-linecap:round;stroke-linejoin:bevel;stroke-dasharray:2.9682,9.894;}
	.st7{fill:#FFFFFF;}
	.st8{fill:#288EEA;}
	.st9{fill:#DDDDDD;}
	.st10{opacity:0.8;fill:#DDDDDD;}
	.st11{fill-rule:evenodd;clip-rule:evenodd;fill:#FFFFFF;}
	.st12{fill-rule:evenodd;clip-rule:evenodd;fill:#288EEA;}
	.st13{fill-rule:evenodd;clip-rule:evenodd;fill:#80C9FF;}
	
		.st14{fill-rule:evenodd;clip-rule:evenodd;fill:none;stroke:#80C9FF;stroke-width:2;stroke-linecap:round;stroke-linejoin:round;stroke-miterlimit:10;}
	
		.st15{fill-rule:evenodd;clip-rule:evenodd;fill:#CB2229;stroke:#80C9FF;stroke-linecap:round;stroke-linejoin:round;stroke-miterlimit:10;}
	
		.st16{fill-rule:evenodd;clip-rule:evenodd;fill:#FFFFFF;stroke:#80C9FF;stroke-linecap:round;stroke-linejoin:round;stroke-miterlimit:10;}
	.st17{fill-rule:evenodd;clip-rule:evenodd;fill:#F7F7F7;}
	.st18{fill:#FFFFFF;stroke:#F0FBFF;stroke-width:5;stroke-miterlimit:10;}
	.st19{fill:none;stroke:#F0FBFF;stroke-width:5;stroke-linecap:round;stroke-miterlimit:10;}
	.st20{fill:none;stroke:#F0FBFF;stroke-width:5;stroke-miterlimit:10;}
	.st21{fill:#EDEDED;}
	.st22{fill:#80C9FF;}
	.st23{opacity:0.8;}
	.st24{fill:#FAFEFF;}
	.st25{fill:#D4F3FF;}
	.st26{fill:#028EEA;}
	.st27{fill:#F5FDFF;}
	.st28{fill:#02C4BA;}
	.st29{fill:#F0FBFF;}
	
		.st30{fill:none;stroke:#288EEA;stroke-width:2;stroke-linecap:round;stroke-linejoin:round;stroke-miterlimit:10;stroke-dasharray:10,50,5;}
	.st31{fill:#FFFFFF;stroke:#028EEA;stroke-width:9;stroke-miterlimit:10;}
	.st32{fill:none;stroke:#028EEA;stroke-width:2;stroke-miterlimit:10;}
	.st33{fill:#CFF2FF;stroke:#028EEA;stroke-width:2;stroke-miterlimit:10;}
	.st34{fill:#DCE6E4;}
	.st35{fill:none;stroke:#02C4BA;stroke-width:2;stroke-linecap:round;stroke-linejoin:round;stroke-miterlimit:10;}
	.st36{fill:none;stroke:#DDDDDD;stroke-width:4;stroke-miterlimit:10;}
	.st37{fill:#78DBFF;}
	.st38{fill:#FFFFFF;stroke:#288EEA;stroke-width:6;stroke-linecap:round;stroke-miterlimit:10;}
	.st39{fill:#FFFFFF;stroke:#288EEA;stroke-width:5;stroke-linecap:round;stroke-miterlimit:10;}
	.st40{fill:none;stroke:#288EEA;stroke-width:4;stroke-linecap:round;stroke-miterlimit:10;}
	.st41{fill:none;stroke:#288EEA;stroke-width:6;stroke-linecap:round;stroke-miterlimit:10;}
	.st42{fill:#FFFFFF;stroke:#288EEA;stroke-width:4;stroke-miterlimit:10;}
	.st43{fill:none;stroke:#DDDDDD;stroke-width:3;stroke-miterlimit:10;}
	.st44{fill:#A9D2F7;}
	.st45{fill:#7EBBF2;}
	.st46{fill:#53A5EE;}
	.st47{fill:#FFFFFF;stroke:#288EEA;stroke-width:4;stroke-linecap:round;stroke-linejoin:round;stroke-miterlimit:10;}
	.st48{fill:#FFFFFF;stroke:#288EEA;stroke-width:5;stroke-miterlimit:10;}
	.st49{fill-rule:evenodd;clip-rule:evenodd;fill:#A9D2F7;}
	.st50{fill-rule:evenodd;clip-rule:evenodd;fill:none;}
	.st51{fill-rule:evenodd;clip-rule:evenodd;fill:#DDDDDD;}
</style>
<g id="Layer_1">
	<g>
		<g>
			<path class="st8" d="M676.2,493.5c0,0-0.1,0-0.1,0c-2.6-0.1-5.2-0.3-7.8-0.5c-1.4-0.1-2.5-1.4-2.4-2.8c0.1-1.4,1.4-2.5,2.8-2.4
				c2.5,0.2,5.1,0.3,7.6,0.4c1.4,0.1,2.6,1.3,2.5,2.7C678.7,492.4,677.6,493.5,676.2,493.5z M701.9,492.9c-1.3,0-2.5-1-2.6-2.4
				c-0.1-1.4,0.9-2.7,2.4-2.8c2.5-0.2,5.1-0.5,7.6-0.8c1.4-0.2,2.7,0.8,2.9,2.3c0.2,1.4-0.8,2.7-2.3,2.9c-2.6,0.3-5.2,0.6-7.8,0.8
				C702.1,492.9,702,492.9,701.9,492.9z M643,489.5c-0.2,0-0.3,0-0.5-0.1c-2.6-0.5-5.1-1.1-7.6-1.7c-1.4-0.3-2.3-1.7-1.9-3.1
				c0.3-1.4,1.8-2.3,3.1-1.9c2.5,0.6,5,1.1,7.4,1.7c1.4,0.3,2.3,1.7,2,3.1C645.3,488.7,644.2,489.5,643,489.5z M734.9,487.5
				c-1.2,0-2.2-0.8-2.5-2c-0.3-1.4,0.5-2.8,1.9-3.2c2.5-0.6,4.9-1.3,7.4-2c1.4-0.4,2.8,0.4,3.2,1.8c0.4,1.4-0.4,2.8-1.8,3.2
				c-2.5,0.7-5,1.4-7.6,2C735.3,487.5,735.1,487.5,734.9,487.5z M610.9,480.2c-0.3,0-0.6-0.1-0.9-0.2c-2.4-0.9-4.9-1.9-7.3-2.9
				c-1.3-0.6-1.9-2.1-1.4-3.4c0.6-1.3,2.1-1.9,3.4-1.4c2.3,1,4.7,1.9,7.1,2.8c1.3,0.5,2,2,1.5,3.4
				C612.9,479.6,611.9,480.2,610.9,480.2z M766.6,476.8c-1,0-2-0.6-2.4-1.6c-0.6-1.3,0-2.9,1.4-3.4c2.3-1,4.6-2,6.9-3.1
				c1.3-0.6,2.9-0.1,3.5,1.2c0.6,1.3,0.1,2.9-1.2,3.5c-2.3,1.1-4.7,2.2-7.1,3.2C767.3,476.7,767,476.8,766.6,476.8z M580.6,465.9
				c-0.4,0-0.9-0.1-1.3-0.3c-2.3-1.3-4.5-2.7-6.7-4c-1.2-0.8-1.6-2.4-0.8-3.6c0.8-1.2,2.4-1.6,3.6-0.8c2.2,1.4,4.3,2.7,6.5,3.9
				c1.2,0.7,1.7,2.3,1,3.6C582.4,465.4,581.5,465.9,580.6,465.9z M796.1,461.2c-0.9,0-1.7-0.4-2.2-1.2c-0.8-1.2-0.4-2.8,0.8-3.6
				c2.1-1.4,4.3-2.8,6.3-4.2c1.2-0.8,2.8-0.5,3.6,0.7c0.8,1.2,0.5,2.8-0.7,3.6c-2.1,1.5-4.3,2.9-6.5,4.3
				C797.1,461,796.6,461.2,796.1,461.2z M553.1,446.9c-0.6,0-1.2-0.2-1.6-0.6c-2-1.7-4-3.3-6-5.1c-1.1-1-1.2-2.6-0.2-3.7
				c1-1.1,2.6-1.2,3.7-0.2c1.9,1.7,3.8,3.3,5.8,4.9c1.1,0.9,1.3,2.5,0.4,3.7C554.6,446.5,553.8,446.9,553.1,446.9z M822.8,441
				c-0.7,0-1.4-0.3-1.9-0.9c-1-1.1-0.9-2.7,0.2-3.7c1.9-1.7,3.8-3.4,5.6-5.2c1-1,2.7-1,3.7,0.1c1,1,1,2.7-0.1,3.7
				c-1.9,1.8-3.8,3.6-5.7,5.3C824,440.8,823.4,441,822.8,441z M529,423.7c-0.7,0-1.4-0.3-1.9-0.9c-1.7-1.9-3.4-3.9-5.1-5.9
				c-0.9-1.1-0.8-2.7,0.4-3.7c1.1-0.9,2.8-0.8,3.7,0.4c1.6,2,3.3,3.9,5,5.8c1,1.1,0.9,2.7-0.2,3.7
				C530.2,423.5,529.6,423.7,529,423.7z M845.9,416.8c-0.6,0-1.2-0.2-1.6-0.6c-1.1-0.9-1.3-2.5-0.4-3.7c1.6-2,3.2-4,4.7-6
				c0.9-1.1,2.5-1.4,3.6-0.5c1.1,0.9,1.4,2.5,0.5,3.6c-1.6,2.1-3.2,4.1-4.8,6.2C847.4,416.5,846.6,416.8,845.9,416.8z M508.8,397
				c-0.9,0-1.7-0.4-2.2-1.2c-1.4-2.2-2.7-4.4-4.1-6.7c-0.7-1.2-0.3-2.8,0.9-3.6c1.2-0.7,2.8-0.3,3.6,0.9c1.3,2.2,2.6,4.4,4,6.5
				c0.8,1.2,0.4,2.8-0.8,3.6C509.8,396.9,509.3,397,508.8,397z M864.8,389.2c-0.4,0-0.9-0.1-1.3-0.3c-1.2-0.7-1.7-2.3-1-3.6
				c1.3-2.2,2.5-4.4,3.7-6.7c0.7-1.3,2.2-1.8,3.5-1.1c1.3,0.7,1.8,2.2,1.1,3.5c-1.2,2.3-2.5,4.6-3.8,6.9
				C866.6,388.7,865.7,389.2,864.8,389.2z M493.3,367.4c-1,0-2-0.6-2.4-1.6c-1-2.4-2-4.8-2.9-7.2c-0.5-1.3,0.2-2.8,1.5-3.4
				c1.3-0.5,2.8,0.2,3.4,1.5c0.9,2.4,1.9,4.7,2.9,7c0.6,1.3-0.1,2.9-1.4,3.4C494,367.4,493.6,367.4,493.3,367.4z M879.1,358.9
				c-0.3,0-0.6-0.1-0.9-0.2c-1.3-0.5-2-2-1.5-3.4c0.9-2.4,1.7-4.8,2.6-7.2c0.5-1.4,1.9-2.1,3.3-1.6c1.4,0.5,2.1,1.9,1.6,3.3
				c-0.8,2.5-1.7,5-2.6,7.4C881.1,358.3,880.1,358.9,879.1,358.9z M482.7,335.8c-1.2,0-2.2-0.8-2.5-2c-0.6-2.5-1.2-5.1-1.7-7.6
				c-0.3-1.4,0.6-2.8,2-3.1c1.4-0.3,2.8,0.6,3.1,2c0.5,2.5,1.1,5,1.7,7.4c0.3,1.4-0.5,2.8-1.9,3.2
				C483.1,335.7,482.9,335.8,482.7,335.8z M888.3,326.7c-0.2,0-0.3,0-0.5,0c-1.4-0.3-2.3-1.7-2-3.1c0.5-2.5,0.9-5,1.4-7.5
				c0.2-1.4,1.6-2.4,3-2.2c1.4,0.2,2.4,1.6,2.2,3c-0.4,2.6-0.9,5.1-1.4,7.7C890.6,325.9,889.5,326.7,888.3,326.7z M477.3,302.7
				c-1.3,0-2.5-1-2.6-2.4c-0.2-2.6-0.4-5.2-0.5-7.8c-0.1-1.4,1-2.7,2.5-2.7c1.5,0,2.7,1.1,2.7,2.5c0.1,2.5,0.3,5.1,0.5,7.6
				c0.1,1.4-1,2.7-2.4,2.8C477.4,302.7,477.4,302.7,477.3,302.7z M892.2,293.5C892.2,293.5,892.1,293.5,892.2,293.5
				c-1.5-0.1-2.7-1.3-2.6-2.7c0.1-2.5,0.1-5.1,0.1-7.6v-0.4c0-1.4,1.2-2.6,2.6-2.6c1.4,0,2.6,1.2,2.6,2.6v0.4c0,2.6,0,5.2-0.1,7.8
				C894.7,292.4,893.6,293.5,892.2,293.5z M477.3,269.3c-0.1,0-0.1,0-0.2,0c-1.4-0.1-2.5-1.4-2.4-2.8c0.2-2.6,0.5-5.2,0.8-7.8
				c0.2-1.4,1.5-2.4,2.9-2.3c1.4,0.2,2.5,1.5,2.3,2.9c-0.3,2.5-0.5,5-0.7,7.6C479.8,268.3,478.6,269.3,477.3,269.3z M890.7,259.7
				c-1.3,0-2.4-1-2.6-2.3c-0.3-2.5-0.7-5-1.1-7.5c-0.2-1.4,0.7-2.8,2.2-3c1.4-0.2,2.8,0.7,3,2.1c0.4,2.6,0.8,5.1,1.1,7.7
				c0.2,1.4-0.8,2.7-2.3,2.9C890.9,259.7,890.8,259.7,890.7,259.7z M482.6,236.3c-0.2,0-0.4,0-0.6-0.1c-1.4-0.3-2.3-1.7-1.9-3.1
				c0.6-2.5,1.3-5.1,2-7.6c0.4-1.4,1.8-2.2,3.2-1.8c1.4,0.4,2.2,1.8,1.8,3.2c-0.7,2.4-1.3,4.9-1.9,7.4
				C484.8,235.5,483.7,236.3,482.6,236.3z M883.9,227c-1.1,0-2.2-0.7-2.5-1.9c-0.7-2.4-1.5-4.9-2.3-7.3c-0.5-1.4,0.3-2.8,1.6-3.3
				c1.4-0.5,2.8,0.3,3.3,1.6c0.8,2.5,1.6,5,2.4,7.5c0.4,1.4-0.4,2.8-1.8,3.2C884.4,226.9,884.1,227,883.9,227z M493.1,204.5
				c-0.3,0-0.7-0.1-1-0.2c-1.3-0.6-1.9-2.1-1.4-3.4c1-2.4,2.1-4.8,3.2-7.2c0.6-1.3,2.2-1.9,3.5-1.2c1.3,0.6,1.9,2.2,1.3,3.5
				c-1.1,2.3-2.1,4.6-3.1,7C495.1,203.9,494.1,204.5,493.1,204.5z M871.9,195.8c-1,0-1.9-0.5-2.3-1.5c-1.1-2.3-2.2-4.6-3.4-6.8
				c-0.7-1.3-0.2-2.8,1.1-3.5c1.3-0.7,2.8-0.2,3.5,1.1c1.2,2.3,2.4,4.6,3.5,7c0.6,1.3,0.1,2.9-1.2,3.5
				C872.6,195.7,872.2,195.8,871.9,195.8z M508.7,174.9c-0.5,0-1-0.1-1.4-0.4c-1.2-0.8-1.6-2.4-0.8-3.6c1.4-2.2,2.8-4.4,4.3-6.5
				c0.8-1.2,2.4-1.5,3.6-0.7c1.2,0.8,1.5,2.4,0.7,3.6c-1.4,2.1-2.8,4.2-4.2,6.4C510.4,174.5,509.5,174.9,508.7,174.9z M855,166.9
				c-0.8,0-1.6-0.4-2.1-1.1c-1.5-2.1-2.9-4.1-4.5-6.2c-0.9-1.1-0.6-2.8,0.5-3.6c1.1-0.9,2.8-0.6,3.6,0.5c1.6,2.1,3.1,4.2,4.6,6.3
				c0.8,1.2,0.5,2.8-0.6,3.6C856,166.8,855.5,166.9,855,166.9z M528.7,148.1c-0.6,0-1.2-0.2-1.7-0.7c-1.1-1-1.2-2.6-0.2-3.7
				c1.7-2,3.5-3.9,5.3-5.8c1-1,2.6-1.1,3.7-0.1c1,1,1.1,2.6,0.1,3.7c-1.8,1.8-3.5,3.7-5.2,5.6C530.2,147.8,529.5,148.1,528.7,148.1z
				 M833.7,141.1c-0.7,0-1.4-0.3-1.9-0.8c-1.8-1.8-3.6-3.6-5.4-5.4c-1-1-1.1-2.6-0.1-3.7c1-1,2.6-1.1,3.7-0.1
				c1.9,1.8,3.7,3.6,5.6,5.5c1,1,1,2.7-0.1,3.7C835,140.9,834.4,141.1,833.7,141.1z M552.8,124.9c-0.8,0-1.5-0.3-2-1
				c-0.9-1.1-0.7-2.8,0.4-3.7c2-1.6,4.1-3.3,6.1-4.8c1.1-0.9,2.8-0.6,3.6,0.5c0.9,1.1,0.6,2.8-0.5,3.6c-2,1.5-4,3.1-6,4.7
				C554,124.7,553.4,124.9,552.8,124.9z M808.6,119.1c-0.5,0-1.1-0.2-1.6-0.5c-2-1.5-4.1-3-6.2-4.5c-1.2-0.8-1.5-2.4-0.7-3.6
				c0.8-1.2,2.4-1.5,3.6-0.7c2.1,1.5,4.3,3,6.4,4.6c1.2,0.9,1.4,2.5,0.5,3.6C810.1,118.7,809.4,119.1,808.6,119.1z M580.3,105.9
				c-0.9,0-1.8-0.5-2.3-1.3c-0.7-1.2-0.3-2.8,0.9-3.6c2.3-1.3,4.5-2.6,6.8-3.8c1.3-0.7,2.8-0.2,3.5,1.1c0.7,1.3,0.2,2.8-1.1,3.5
				c-2.2,1.2-4.5,2.4-6.7,3.7C581.2,105.8,580.8,105.9,580.3,105.9z M780.2,101.3c-0.4,0-0.8-0.1-1.2-0.3c-2.3-1.2-4.5-2.3-6.8-3.4
				c-1.3-0.6-1.9-2.2-1.2-3.5c0.6-1.3,2.2-1.9,3.5-1.2c2.4,1.1,4.7,2.3,7,3.5c1.3,0.7,1.8,2.2,1.1,3.5
				C782.1,100.8,781.2,101.3,780.2,101.3z M610.5,91.5c-1,0-2-0.6-2.4-1.7c-0.5-1.3,0.2-2.8,1.5-3.4c2.4-0.9,4.9-1.8,7.4-2.6
				c1.4-0.5,2.8,0.3,3.3,1.6c0.5,1.4-0.3,2.8-1.6,3.3c-2.4,0.8-4.8,1.7-7.2,2.6C611.1,91.5,610.8,91.5,610.5,91.5z M749.4,88.3
				c-0.3,0-0.5,0-0.8-0.1c-2.4-0.8-4.8-1.5-7.3-2.2c-1.4-0.4-2.2-1.8-1.8-3.2c0.4-1.4,1.8-2.2,3.2-1.8c2.5,0.7,5,1.5,7.5,2.3
				c1.4,0.4,2.1,1.9,1.7,3.3C751.5,87.6,750.5,88.3,749.4,88.3z M642.6,82.2c-1.2,0-2.3-0.8-2.5-2.1c-0.3-1.4,0.6-2.8,2-3.1
				c2.5-0.5,5.1-1,7.7-1.4c1.4-0.2,2.8,0.7,3,2.1c0.2,1.4-0.7,2.8-2.1,3c-2.5,0.4-5,0.9-7.5,1.4C642.9,82.2,642.8,82.2,642.6,82.2z
				 M716.9,80.5c-0.1,0-0.3,0-0.4,0c-2.5-0.4-5-0.7-7.6-1c-1.4-0.2-2.4-1.5-2.3-2.9c0.2-1.4,1.5-2.4,2.9-2.3
				c2.6,0.3,5.2,0.7,7.8,1.1c1.4,0.2,2.4,1.6,2.2,3C719.2,79.5,718.1,80.5,716.9,80.5z M675.8,78.1c-1.4,0-2.5-1.1-2.6-2.5
				c-0.1-1.4,1.1-2.6,2.5-2.7c2.6-0.1,5.2-0.2,7.8-0.2c0,0,0,0,0,0c1.4,0,2.6,1.2,2.6,2.6c0,1.4-1.2,2.6-2.6,2.6
				c-2.6,0-5.1,0.1-7.6,0.2C675.9,78.1,675.8,78.1,675.8,78.1z"/>
		</g>
		<g>
			<line class="st7" x1="975.4" y1="532.1" x2="86.4" y2="532.1"/>
			<path class="st8" d="M86.4,534.7h889c1.4,0,2.6-1.2,2.6-2.6c0-1.4-1.2-2.6-2.6-2.6h-889c-1.4,0-2.6,1.2-2.6,2.6
				C83.8,533.5,85,534.7,86.4,534.7z"/>
		</g>
		<g>
			<circle class="st7" cx="458.4" cy="125.5" r="1.5"/>
		</g>
		<g>
			<circle class="st7" cx="464.5" cy="125.5" r="1.5"/>
		</g>
		<g>
			<circle class="st7" cx="470.6" cy="125.5" r="1.5"/>
		</g>
		<g>
			<line class="st7" x1="989.1" y1="532.1" x2="1043.6" y2="532.1"/>
			<path class="st8" d="M989.1,534.7h54.5c1.4,0,2.6-1.2,2.6-2.6c0-1.4-1.2-2.6-2.6-2.6h-54.5c-1.4,0-2.6,1.2-2.6,2.6
				C986.5,533.5,987.6,534.7,989.1,534.7z"/>
		</g>
		<g>
			<circle class="st3" cx="308.8" cy="127.6" r="3.1"/>
		</g>
		<g>
			<circle class="st12" cx="323" cy="117.8" r="3.1"/>
		</g>
		<g>
			<circle class="st12" cx="186.2" cy="131" r="3.1"/>
		</g>
		<g>
			<circle class="st3" cx="770.7" cy="179.5" r="3.1"/>
		</g>
		<g>
			<circle class="st13" cx="670.3" cy="135.8" r="3.1"/>
		</g>
		<g>
			<circle class="st13" cx="858.9" cy="174.3" r="3.1"/>
		</g>
		<g>
			<g>
				<path class="st13" d="M968.3,238.2c0,0.6-0.5,1.1-1.1,1.1l0,0c-0.6,0-1.1-0.5-1.1-1.1v-5.5c0-0.6,0.5-1.1,1.1-1.1l0,0
					c0.6,0,1.1,0.5,1.1,1.1V238.2z"/>
			</g>
			<g>
				<path class="st13" d="M968.3,248.9c0,0.6-0.5,1.1-1.1,1.1l0,0c-0.6,0-1.1-0.5-1.1-1.1v-5.5c0-0.6,0.5-1.1,1.1-1.1l0,0
					c0.6,0,1.1,0.5,1.1,1.1V248.9z"/>
			</g>
			<g>
				<path class="st13" d="M969.8,241.7c-0.6,0-1.1-0.5-1.1-1.1l0,0c0-0.6,0.5-1.1,1.1-1.1h5.5c0.6,0,1.1,0.5,1.1,1.1l0,0
					c0,0.6-0.5,1.1-1.1,1.1H969.8z"/>
			</g>
			<g>
				<path class="st13" d="M959,241.7c-0.6,0-1.1-0.5-1.1-1.1l0,0c0-0.6,0.5-1.1,1.1-1.1h5.5c0.6,0,1.1,0.5,1.1,1.1l0,0
					c0,0.6-0.5,1.1-1.1,1.1H959z"/>
			</g>
		</g>
		<g>
			<g>
				<path class="st3" d="M247,94.5c0,0.9-0.8,1.7-1.7,1.7l0,0c-0.9,0-1.7-0.8-1.7-1.7v-8.2c0-0.9,0.8-1.7,1.7-1.7l0,0
					c0.9,0,1.7,0.8,1.7,1.7V94.5z"/>
			</g>
			<g>
				<path class="st3" d="M247,110.5c0,0.9-0.8,1.7-1.7,1.7l0,0c-0.9,0-1.7-0.8-1.7-1.7v-8.2c0-0.9,0.8-1.7,1.7-1.7l0,0
					c0.9,0,1.7,0.8,1.7,1.7V110.5z"/>
			</g>
			<g>
				<path class="st3" d="M249.3,99.8c-0.9,0-1.7-0.8-1.7-1.7l0,0c0-0.9,0.8-1.7,1.7-1.7h8.2c0.9,0,1.7,0.8,1.7,1.7l0,0
					c0,0.9-0.8,1.7-1.7,1.7H249.3z"/>
			</g>
			<g>
				<path class="st3" d="M233.2,99.8c-0.9,0-1.7-0.8-1.7-1.7l0,0c0-0.9,0.8-1.7,1.7-1.7h8.2c0.9,0,1.7,0.8,1.7,1.7l0,0
					c0,0.9-0.8,1.7-1.7,1.7H233.2z"/>
			</g>
		</g>
		<g>
			<g>
				<path class="st13" d="M823.1,177.4c0,0.7-0.6,1.3-1.3,1.3l0,0c-0.7,0-1.3-0.6-1.3-1.3v-6.4c0-0.7,0.6-1.3,1.3-1.3l0,0
					c0.7,0,1.3,0.6,1.3,1.3V177.4z"/>
			</g>
			<g>
				<path class="st13" d="M823.1,189.9c0,0.7-0.6,1.3-1.3,1.3l0,0c-0.7,0-1.3-0.6-1.3-1.3v-6.4c0-0.7,0.6-1.3,1.3-1.3l0,0
					c0.7,0,1.3,0.6,1.3,1.3V189.9z"/>
			</g>
			<g>
				<path class="st13" d="M824.9,181.5c-0.7,0-1.3-0.6-1.3-1.3l0,0c0-0.7,0.6-1.3,1.3-1.3h6.4c0.7,0,1.3,0.6,1.3,1.3l0,0
					c0,0.7-0.6,1.3-1.3,1.3H824.9z"/>
			</g>
			<g>
				<path class="st13" d="M812.3,181.5c-0.7,0-1.3-0.6-1.3-1.3l0,0c0-0.7,0.6-1.3,1.3-1.3h6.4c0.7,0,1.3,0.6,1.3,1.3l0,0
					c0,0.7-0.6,1.3-1.3,1.3H812.3z"/>
			</g>
		</g>
		<g>
			<g>
				<path class="st22" d="M462.8,123.2h-33.3c-1.1,0-2.1-0.7-2.4-1.7c-1-2.8-2.8-5.2-5.1-7.1c-1-0.8-1.3-2.2-0.6-3.3
					c1.7-3,2.6-6.5,2.6-9.9c0-11.1-9-20.1-20.1-20.1c-1.4,0-2.8,0.1-4.2,0.4c-0.7,0.1-1.5,0-2.1-0.4c-0.6-0.4-1-1.1-1.1-1.8
					c-2.6-24.1-22.8-42.2-47-42.2c-26.1,0-47.3,21.2-47.3,47.3c0,2.7,0.3,5.5,0.7,8.3c0.1,0.7-0.1,1.5-0.5,2c-0.4,0.6-1.1,0.9-1.8,1
					c-11.8,1-20.7,10.8-20.7,22.7c0,0.7,0,1.3,0.1,2c0.1,0.7-0.2,1.4-0.7,2c-0.5,0.5-1.2,0.8-1.9,0.8h-19.3c-1.4,0-2.6-1.2-2.6-2.6
					c0-1.4,1.2-2.6,2.6-2.6h16.5c0.2-13.5,9.7-24.6,22.7-27.1c-0.3-2.2-0.4-4.4-0.4-6.5c0-29,23.6-52.5,52.5-52.5
					c26,0,47.8,18.8,51.8,44.2c0.8-0.1,1.7-0.1,2.5-0.1c13.9,0,25.3,11.3,25.3,25.3c0,3.7-0.8,7.3-2.4,10.6c1.8,1.8,3.3,3.9,4.4,6.2
					h31.5c1.4,0,2.6,1.2,2.6,2.6C465.4,122.1,464.2,123.2,462.8,123.2z"/>
			</g>
		</g>
		<g>
			<g>
				<path class="st22" d="M980.2,209.4h-31.9c-0.6,0-1.2-0.4-1.4-1c-0.4-1.1-1.1-2.1-2-2.8c-0.6-0.5-0.7-1.3-0.4-1.9
					c0.7-1.2,1.1-2.6,1.1-4c0-4.5-3.7-8.2-8.2-8.2c-0.6,0-1.1,0.1-1.7,0.2c-0.4,0.1-0.9,0-1.2-0.3c-0.3-0.2-0.6-0.6-0.6-1.1
					c-1.1-10-9.5-17.6-19.6-17.6c-10.9,0-19.7,8.9-19.7,19.7c0,1.1,0.1,2.3,0.3,3.5c0.1,0.4,0,0.8-0.3,1.2s-0.6,0.5-1.1,0.6
					c-4.8,0.4-8.5,4.4-8.5,9.3c0,0.3,0,0.5,0,0.8c0,0.4-0.1,0.8-0.4,1.1c-0.3,0.3-0.7,0.5-1.1,0.5h-8.2c-0.8,0-1.5-0.7-1.5-1.5
					c0-0.8,0.7-1.5,1.5-1.5h6.7c0.3-5.6,4.2-10.3,9.6-11.4c-0.1-0.8-0.1-1.7-0.1-2.5c0-12.5,10.2-22.8,22.8-22.8
					c11.1,0,20.5,8,22.4,18.8c6.4-0.4,11.9,4.7,11.9,11.1c0,1.5-0.3,3-0.9,4.4c0.7,0.7,1.2,1.5,1.6,2.3h30.9c0.8,0,1.5,0.7,1.5,1.5
					C981.7,208.8,981,209.4,980.2,209.4z"/>
			</g>
		</g>
		<g>
			<circle class="st28" cx="613.1" cy="478.9" r="5.8"/>
		</g>
		<circle class="st30" cx="775.6" cy="126.5" r="47.9"/>
		<g>
			<path class="st8" d="M942.6,456.2c-1.9,0-3.7-0.8-5.1-2.3c-0.7-0.8-1.8-1.3-2.9-1.3c-1.1,0-2.1,0.5-2.9,1.3c-2,2.2-5,2.9-7.7,1.7
				c-2.7-1.1-4.4-3.8-4.2-6.7c0.1-1.1-0.3-2.2-1.1-3c-0.8-0.8-1.8-1.2-3-1.1c-2.9,0.2-5.6-1.5-6.7-4.2c-1.1-2.7-0.4-5.7,1.7-7.7
				c0.8-0.8,1.3-1.8,1.3-2.9c0-1.1-0.5-2.1-1.3-2.9c-2.2-2-2.9-5-1.7-7.7c1.1-2.7,3.8-4.4,6.7-4.2c1.1,0.1,2.2-0.3,3-1.1
				c0.8-0.8,1.2-1.8,1.1-3c-0.2-2.9,1.5-5.6,4.2-6.7c2.7-1.1,5.7-0.4,7.7,1.7c0.7,0.8,1.8,1.3,2.9,1.3c1.1,0,2.1-0.5,2.9-1.3l0,0
				c2-2.2,5-2.9,7.7-1.7c2.7,1.1,4.4,3.8,4.2,6.7c-0.1,1.1,0.3,2.2,1.1,3c0.8,0.8,1.8,1.2,3,1.1c2.9-0.1,5.6,1.5,6.7,4.2
				c1.1,2.7,0.4,5.7-1.7,7.7c-0.8,0.8-1.3,1.8-1.3,2.9c0,1.1,0.5,2.1,1.3,2.9c2.2,2,2.9,5,1.7,7.7c-1.1,2.7-3.8,4.4-6.7,4.2
				c-1.1-0.1-2.2,0.3-3,1.1c-0.8,0.8-1.2,1.8-1.1,3c0.2,2.9-1.5,5.6-4.2,6.7C944.4,456.1,943.5,456.2,942.6,456.2z M934.7,449.7
				c1.9,0,3.8,0.8,5.1,2.3c1.4,1.5,3.2,1.5,4.4,1c1.2-0.5,2.5-1.8,2.4-3.8c-0.1-1.9,0.6-3.8,2-5.2c1.4-1.4,3.3-2.1,5.2-2
				c2,0.1,3.3-1.2,3.8-2.4c0.5-1.2,0.5-3-1-4.4c-1.4-1.3-2.3-3.2-2.3-5.1c0-1.9,0.8-3.8,2.3-5.1c1.5-1.4,1.5-3.2,1-4.4
				c-0.5-1.2-1.8-2.5-3.8-2.4c-1.9,0.1-3.8-0.6-5.2-2c-1.4-1.4-2.1-3.3-2-5.2c0.1-2-1.2-3.3-2.4-3.8c-1.2-0.5-3-0.5-4.4,1
				c-1.3,1.4-3.2,2.3-5.1,2.3c-1.9,0-3.8-0.8-5.1-2.3c-1.4-1.5-3.2-1.5-4.4-1c-1.2,0.5-2.5,1.8-2.4,3.8c0.1,1.9-0.6,3.8-2,5.2
				c-1.4,1.4-3.3,2.1-5.2,2c-2-0.1-3.3,1.2-3.8,2.4c-0.5,1.2-0.5,3,1,4.4c1.4,1.3,2.3,3.2,2.3,5.1c0,1.9-0.8,3.8-2.3,5.1
				c-1.5,1.4-1.5,3.2-1,4.4c0.5,1.2,1.8,2.5,3.8,2.4c1.9-0.1,3.8,0.6,5.2,2c1.4,1.4,2.1,3.3,2,5.2c-0.1,2,1.2,3.3,2.4,3.8
				c1.2,0.5,3,0.5,4.4-1C930.9,450.5,932.7,449.7,934.7,449.7z"/>
		</g>
		<path class="st8" d="M951.6,427.1c2.8-2.5,0.9-7.1-2.9-6.9c-2.4,0.1-4.3-1.8-4.2-4.2c0.2-3.7-4.4-5.6-6.9-2.9v0
			c-1.6,1.7-4.3,1.7-5.9,0v0c-2.5-2.8-7.1-0.9-6.9,2.9c0.1,2.4-1.8,4.3-4.2,4.2l0,0c-3.7-0.2-5.6,4.4-2.9,6.9c1.7,1.6,1.7,4.3,0,5.9
			c-2.8,2.5-0.9,7.1,2.9,6.9l0,0c2.4-0.1,4.3,1.8,4.2,4.2c-0.2,3.7,4.4,5.6,6.9,2.9l0,0c1.6-1.7,4.3-1.7,5.9,0l0,0
			c2.5,2.8,7.1,0.9,6.9-2.9c-0.1-2.4,1.8-4.3,4.2-4.2c3.7,0.2,5.6-4.4,2.9-6.9C949.8,431.4,949.8,428.7,951.6,427.1z M934.7,439.4
			c-5.1,0-9.3-4.2-9.3-9.3c0-5.1,4.2-9.3,9.3-9.3c5.1,0,9.3,4.2,9.3,9.3C944,435.2,939.8,439.4,934.7,439.4z"/>
		<circle class="st30" cx="934.7" cy="430.1" r="35.4"/>
		<g>
			<g>
				<rect x="391.2" y="441.9" class="st9" width="62.3" height="3.8"/>
			</g>
			<g>
				<circle class="st12" cx="207.3" cy="223.3" r="3.1"/>
			</g>
			<g>
				<g>
					<path class="st3" d="M253,211.4c0,0.9-0.8,1.7-1.7,1.7l0,0c-0.9,0-1.7-0.8-1.7-1.7v-8.2c0-0.9,0.8-1.7,1.7-1.7l0,0
						c0.9,0,1.7,0.8,1.7,1.7V211.4z"/>
				</g>
				<g>
					<path class="st3" d="M253,227.4c0,0.9-0.8,1.7-1.7,1.7l0,0c-0.9,0-1.7-0.8-1.7-1.7v-8.2c0-0.9,0.8-1.7,1.7-1.7l0,0
						c0.9,0,1.7,0.8,1.7,1.7V227.4z"/>
				</g>
				<g>
					<path class="st3" d="M255.2,216.7c-0.9,0-1.7-0.8-1.7-1.7l0,0c0-0.9,0.8-1.7,1.7-1.7h8.2c0.9,0,1.7,0.8,1.7,1.7l0,0
						c0,0.9-0.8,1.7-1.7,1.7H255.2z"/>
				</g>
				<g>
					<path class="st3" d="M239.2,216.7c-0.9,0-1.7-0.8-1.7-1.7l0,0c0-0.9,0.8-1.7,1.7-1.7h8.2c0.9,0,1.7,0.8,1.7,1.7l0,0
						c0,0.9-0.8,1.7-1.7,1.7H239.2z"/>
				</g>
			</g>
			<g>
				<rect x="217.2" y="317.4" class="st24" width="235.3" height="190"/>
			</g>
			<g>
				<rect x="351" y="317.4" class="st25" width="101.5" height="190"/>
			</g>
			<g>
				<path class="st26" d="M456.4,511.3H213.3V313.5h243.1V511.3z M221.1,503.5h227.5V321.3H221.1V503.5z"/>
			</g>
			<g>
				<path class="st27" d="M466.3,456v56.9c0,9.6-7.8,17.4-17.4,17.4H222.3c-0.6,0-1.2,0-1.8-0.1c-8.7-0.9-15.6-8.3-15.6-17.3V456
					H256l8.6,23.3h142.1l8.6-23.3H466.3z"/>
				<path class="st26" d="M449,534.1H222.3c-11.7,0-21.3-9.5-21.3-21.3v-60.7h57.7l8.6,23.3h136.6l8.6-23.3h57.7v60.7
					C470.2,524.6,460.7,534.1,449,534.1z M208.8,459.9v52.9c0,7.4,6,13.5,13.5,13.5H449c7.4,0,13.5-6,13.5-13.5v-52.9H418l-8.6,23.3
					H261.9l-8.6-23.3H208.8z"/>
			</g>
			<g>
				<polygon class="st7" points="466.3,369.8 466.3,444 204.9,444 204.9,369.8 256,369.8 259.5,379.4 264.6,393.1 406.6,393.1 
					415.3,369.8 				"/>
				<path class="st26" d="M470.2,447.9H201v-82h57.7l8.6,23.3h136.6l8.6-23.3h57.7V447.9z M208.8,440.1h253.6v-66.4H418l-8.6,23.3
					H261.9l-8.6-23.3h-44.4V440.1z"/>
			</g>
			<g>
				<path class="st7" d="M204.9,352.3v-54.1c0-11.1,9-20.1,20.1-20.1h221.2c11.1,0,20.1,9,20.1,20.1v54.1h-51.1l-8.6-23.3H264.6
					l-8.6,23.3H204.9z"/>
				<path class="st26" d="M470.2,356.2h-57.7l-8.6-23.3H267.3l-8.6,23.3H201v-58c0-13.2,10.8-24,24-24h221.2c13.2,0,24,10.8,24,24
					V356.2z M418,348.4h44.4v-50.2c0-8.9-7.3-16.2-16.2-16.2H225c-8.9,0-16.2,7.3-16.2,16.2v50.2h44.4l8.6-23.3h147.5L418,348.4z"/>
			</g>
			<g>
				<rect x="275.8" y="346.9" class="st28" width="40.9" height="22.9"/>
			</g>
			<g>
				<circle class="st26" cx="388.9" cy="359.8" r="12.9"/>
			</g>
			<g>
				<circle class="st28" cx="446.7" cy="299.9" r="5.8"/>
			</g>
			<g>
				<circle class="st28" cx="446.7" cy="390.2" r="5.8"/>
			</g>
			<g>
				<circle class="st26" cx="351" cy="359.5" r="12.9"/>
			</g>
			<g>
				<path class="st7" d="M390.1,516H289.3c-1.6,0-3-1.4-3-3v-16.9c0-1.6,1.4-3,3-3h100.8c1.6,0,3,1.4,3,3V513
					C393.1,514.6,391.7,516,390.1,516z"/>
				<path class="st26" d="M388.4,518.3h-97.5c-3.9,0-7-3.1-7-7v-13.5c0-3.9,3.1-7,7-7h97.5c3.9,0,7,3.1,7,7v13.5
					C395.4,515.2,392.3,518.3,388.4,518.3z M290.9,495.5c-1.3,0-2.3,1-2.3,2.3v13.5c0,1.3,1,2.3,2.3,2.3h97.5c1.3,0,2.3-1,2.3-2.3
					v-13.5c0-1.3-1-2.3-2.3-2.3H290.9z"/>
			</g>
			<g>
				<rect x="296.1" y="500" class="st28" width="47.6" height="7"/>
			</g>
			<g>
				<path class="st26" d="M414.9,295.6c-1.3,0-2.3-1-2.3-2.3c0-1.3,1-2.3,2.3-2.3c1.3,0,2.3,1,2.3,2.3
					C417.2,294.5,416.2,295.6,414.9,295.6z M375.9,295.6h-70.1c-1.3,0-2.3-1-2.3-2.3c0-1.3,1-2.3,2.3-2.3h70.1c1.3,0,2.3,1,2.3,2.3
					C378.3,294.5,377.2,295.6,375.9,295.6z M274.7,295.6c-1.3,0-2.3-1-2.3-2.3c0-1.3,1-2.3,2.3-2.3c1.3,0,2.3,1,2.3,2.3
					C277,294.5,276,295.6,274.7,295.6z M235.7,295.6h-7c-1.3,0-2.3-1-2.3-2.3c0-1.3,1-2.3,2.3-2.3h7c1.3,0,2.3,1,2.3,2.3
					C238.1,294.5,237,295.6,235.7,295.6z"/>
			</g>
			<g>
				<g>
					<path class="st26" d="M455.4,434c-0.6,0-1.2-0.2-1.7-0.7c-0.2-0.2-0.4-0.5-0.5-0.7c-0.1-0.3-0.2-0.6-0.2-0.9c0-0.2,0-0.3,0-0.5
						c0-0.2,0.1-0.3,0.1-0.4c0-0.1,0.1-0.3,0.2-0.4c0.1-0.1,0.2-0.2,0.3-0.4c0.5-0.5,1.4-0.8,2.1-0.6c0.2,0,0.3,0.1,0.4,0.1
						c0.1,0,0.3,0.1,0.4,0.2c0.1,0.1,0.2,0.2,0.4,0.3c0.1,0.1,0.2,0.2,0.3,0.4c0.1,0.1,0.2,0.3,0.2,0.4c0,0.1,0.1,0.3,0.1,0.4
						c0,0.2,0,0.3,0,0.5c0,0.3-0.1,0.6-0.2,0.9c-0.1,0.3-0.3,0.5-0.5,0.7C456.6,433.8,456,434,455.4,434z"/>
				</g>
				<g>
					<path class="st26" d="M413.2,434.1h-59c-1.3,0-2.3-1-2.3-2.3s1-2.3,2.3-2.3h59c1.3,0,2.3,1,2.3,2.3S414.5,434.1,413.2,434.1z"
						/>
				</g>
				<g>
					<path class="st26" d="M337.4,434c-1.3,0-2.3-1-2.3-2.3c0-1.3,1-2.3,2.3-2.3c1.3,0,2.3,1,2.3,2.3C339.7,433,338.7,434,337.4,434
						z M295.2,434h-59c-1.3,0-2.3-1-2.3-2.3c0-1.3,1-2.3,2.3-2.3h59c1.3,0,2.3,1,2.3,2.3C297.6,433,296.5,434,295.2,434z"/>
				</g>
				<g>
					<path class="st26" d="M219.4,434c-0.6,0-1.2-0.2-1.7-0.7c-0.2-0.2-0.4-0.5-0.5-0.7c-0.1-0.3-0.2-0.6-0.2-0.9c0-0.2,0-0.3,0-0.5
						s0.1-0.3,0.1-0.4c0-0.1,0.1-0.3,0.2-0.4c0.1-0.1,0.2-0.2,0.3-0.4c0.5-0.5,1.4-0.8,2.1-0.6c0.2,0,0.3,0.1,0.4,0.1
						c0.1,0,0.3,0.1,0.4,0.2c0.1,0.1,0.2,0.2,0.4,0.3c0.1,0.1,0.2,0.2,0.3,0.4c0.1,0.1,0.2,0.3,0.2,0.4c0,0.1,0.1,0.3,0.1,0.4
						c0,0.2,0,0.3,0,0.5c0,0.3-0.1,0.6-0.2,0.9c-0.1,0.3-0.3,0.5-0.5,0.7C220.6,433.8,220,434,219.4,434z"/>
				</g>
				<g>
					<path class="st26" d="M219.4,416.7c-1.3,0-2.3-1-2.3-2.3v-24.3c0-1.3,1-2.3,2.3-2.3s2.3,1,2.3,2.3v24.3
						C221.7,415.7,220.6,416.7,219.4,416.7z"/>
				</g>
				<g>
					<path class="st26" d="M219.4,385.5c-0.3,0-0.6-0.1-0.9-0.2c-0.3-0.1-0.5-0.3-0.8-0.5c-0.4-0.4-0.7-1-0.7-1.7c0-0.2,0-0.3,0-0.5
						c0-0.2,0.1-0.3,0.1-0.4c0.1-0.1,0.1-0.3,0.2-0.4c0.1-0.1,0.2-0.2,0.3-0.4c0.5-0.5,1.4-0.8,2.1-0.6c0.2,0,0.3,0.1,0.4,0.1
						c0.1,0.1,0.3,0.1,0.4,0.2c0.1,0.1,0.2,0.2,0.4,0.3c0.1,0.1,0.2,0.2,0.3,0.4c0.1,0.1,0.2,0.3,0.2,0.4c0.1,0.1,0.1,0.3,0.1,0.4
						c0,0.1,0,0.3,0,0.5c0,0.6-0.2,1.2-0.7,1.7C220.6,385.3,220,385.5,219.4,385.5z"/>
				</g>
			</g>
			<g>
				<g>
					<path class="st26" d="M219.4,519.7c-0.6,0-1.2-0.2-1.7-0.7c-0.4-0.4-0.7-1-0.7-1.7c0-0.2,0-0.3,0-0.5c0-0.2,0.1-0.3,0.1-0.4
						c0-0.1,0.1-0.3,0.2-0.4c0.1-0.1,0.2-0.2,0.3-0.4c0.9-0.9,2.4-0.9,3.3,0c0.1,0.1,0.2,0.2,0.3,0.4c0.1,0.1,0.2,0.3,0.2,0.4
						c0.1,0.1,0.1,0.3,0.1,0.4c0,0.1,0,0.3,0,0.5c0,0.6-0.2,1.2-0.7,1.7C220.6,519.5,220,519.7,219.4,519.7z"/>
				</g>
				<g>
					<path class="st26" d="M219.4,502.4c-1.3,0-2.3-1-2.3-2.3v-24.3c0-1.3,1-2.3,2.3-2.3s2.3,1,2.3,2.3V500
						C221.7,501.3,220.6,502.4,219.4,502.4z"/>
				</g>
				<g>
					<path class="st26" d="M219.4,471.2c-0.3,0-0.6-0.1-0.9-0.2c-0.3-0.1-0.5-0.3-0.8-0.5c-0.2-0.2-0.4-0.5-0.5-0.8
						c-0.1-0.3-0.2-0.6-0.2-0.9c0-0.2,0-0.3,0-0.5c0-0.2,0.1-0.3,0.1-0.5c0.1-0.1,0.1-0.3,0.2-0.4c0.1-0.1,0.2-0.2,0.3-0.4
						c0.1-0.1,0.2-0.2,0.4-0.3c0.1-0.1,0.3-0.2,0.4-0.2c0.1,0,0.3-0.1,0.4-0.1c0.3-0.1,0.6-0.1,0.9,0c0.2,0,0.3,0.1,0.4,0.1
						c0.1,0.1,0.3,0.1,0.4,0.2c0.1,0.1,0.2,0.2,0.4,0.3c0.1,0.1,0.2,0.2,0.3,0.4c0.1,0.1,0.2,0.2,0.2,0.4c0,0.1,0.1,0.3,0.1,0.5
						c0,0.1,0,0.3,0,0.5c0,0.6-0.2,1.2-0.7,1.7c-0.2,0.2-0.5,0.4-0.8,0.5C220,471.1,219.7,471.2,219.4,471.2z"/>
				</g>
			</g>
			<path class="st31" d="M450.6,278.1H217.9c-3.3,0-6-2.7-6-6V223c0-3.3,2.7-6,6-6h232.7c3.3,0,6,2.7,6,6v49.1
				C456.6,275.4,453.9,278.1,450.6,278.1z"/>
			<g>
				<g>
					<path class="st7" d="M204.9,242v-54.1c0-11.1,9-20.1,20.1-20.1h221.2c11.1,0,20.1,9,20.1,20.1V242h-51.1l-8.6-23.3H264.6
						L256,242H204.9z"/>
					<path class="st26" d="M470.2,245.9h-57.7l-8.6-23.3H267.3l-8.6,23.3H201v-58c0-13.2,10.8-24,24-24h221.2c13.2,0,24,10.8,24,24
						V245.9z M418,238.1h44.4v-50.2c0-8.9-7.3-16.2-16.2-16.2H225c-8.9,0-16.2,7.3-16.2,16.2v50.2h44.4l8.6-23.3h147.5L418,238.1z"
						/>
				</g>
				<g>
					<circle class="st28" cx="446.7" cy="189.6" r="5.8"/>
				</g>
				<g>
					<path class="st26" d="M414.9,185.3c-1.3,0-2.3-1-2.3-2.3c0-1.3,1-2.3,2.3-2.3c1.3,0,2.3,1,2.3,2.3
						C417.2,184.3,416.2,185.3,414.9,185.3z M375.9,185.3h-70.1c-1.3,0-2.3-1-2.3-2.3c0-1.3,1-2.3,2.3-2.3h70.1c1.3,0,2.3,1,2.3,2.3
						C378.3,184.3,377.2,185.3,375.9,185.3z M274.7,185.3c-1.3,0-2.3-1-2.3-2.3c0-1.3,1-2.3,2.3-2.3c1.3,0,2.3,1,2.3,2.3
						C277,184.3,276,185.3,274.7,185.3z M235.7,185.3h-7c-1.3,0-2.3-1-2.3-2.3c0-1.3,1-2.3,2.3-2.3h7c1.3,0,2.3,1,2.3,2.3
						C238.1,184.3,237,185.3,235.7,185.3z"/>
				</g>
			</g>
			<path class="st32" d="M282.6,242.9v14.3c0,3.3-2.7,6.1-6.1,6.1c-3.3,0-6.1-2.7-6.1-6.1v-14.3c0-3.3,2.7-6.1,6.1-6.1
				c1.7,0,3.2,0.7,4.3,1.8C281.9,239.7,282.6,241.2,282.6,242.9z"/>
			<path class="st33" d="M282.6,242.9v9.9c0,3.3-2.7,6.1-6.1,6.1c-3.3,0-6.1-2.7-6.1-6.1v-9.9c0-3.3,2.7-6.1,6.1-6.1
				c1.7,0,3.2,0.7,4.3,1.8C281.9,239.7,282.6,241.2,282.6,242.9z"/>
			<circle class="st26" cx="276.5" cy="243.8" r="4"/>
			<path class="st32" d="M298.5,242.9v14.3c0,3.3-2.7,6.1-6.1,6.1c-3.3,0-6.1-2.7-6.1-6.1v-14.3c0-3.3,2.7-6.1,6.1-6.1
				c1.7,0,3.2,0.7,4.3,1.8C297.8,239.7,298.5,241.2,298.5,242.9z"/>
			<path class="st33" d="M298.5,242.9v9.9c0,3.3-2.7,6.1-6.1,6.1c-3.3,0-6.1-2.7-6.1-6.1v-9.9c0-3.3,2.7-6.1,6.1-6.1
				c1.7,0,3.2,0.7,4.3,1.8C297.8,239.7,298.5,241.2,298.5,242.9z"/>
			<circle class="st26" cx="292.6" cy="243.8" r="4"/>
			<path class="st32" d="M314.6,257.2v-14.3c0-3.3-2.7-6.1-6.1-6.1s-6.1,2.7-6.1,6.1v14.3c0,3.3,2.7,6.1,6.1,6.1
				c1.7,0,3.2-0.7,4.3-1.8C313.9,260.4,314.6,258.9,314.6,257.2z"/>
			<path class="st33" d="M314.6,257.2v-9.9c0-3.3-2.7-6.1-6.1-6.1s-6.1,2.7-6.1,6.1v9.9c0,3.3,2.7,6.1,6.1,6.1
				c1.7,0,3.2-0.7,4.3-1.8C313.9,260.4,314.6,258.9,314.6,257.2z"/>
			<circle class="st26" cx="308.5" cy="256.3" r="4"/>
			<path class="st32" d="M401.8,238.3v22.6c0,1.1-0.9,2-2,2h-61.7c-1.1,0-2-0.9-2-2v-22.6c0-1.1,0.9-2,2-2h61.7
				C400.9,236.3,401.8,237.2,401.8,238.3z"/>
			<polyline class="st35" points="341.2,254.6 348.2,254.6 356.3,246.2 364.8,246.2 385.6,254 388,246.5 397.2,243.7 			"/>
		</g>
		<path class="st42" d="M790.6,56.4l-11.4,11.4c-0.8,0.8-2,0.8-2.8,0l-11.4-11.4c-1.3-1.3-0.4-3.4,1.4-3.4h22.8
			C791,53,791.9,55.1,790.6,56.4z"/>
		<path class="st42" d="M790.6,38.9l-11.4,11.4c-0.8,0.8-2,0.8-2.8,0l-11.4-11.4c-1.3-1.3-0.4-3.4,1.4-3.4h22.8
			C791,35.5,791.9,37.6,790.6,38.9z"/>
		<path class="st43" d="M866.1,95.8l-11.4,11.4c-0.8,0.8-2,0.8-2.8,0l-11.4-11.4c-1.3-1.3-0.4-3.4,1.4-3.4h22.8
			C866.4,92.4,867.3,94.6,866.1,95.8z"/>
		<g>
			<path class="st9" d="M362.9,96.6c-8,0-14.6,6.5-14.6,14.6c0,8,6.5,14.6,14.6,14.6c8,0,14.6-6.5,14.6-14.6
				C377.5,103.1,371,96.6,362.9,96.6z M362.9,120c-4.9,0-8.8-4-8.8-8.8c0-4.9,4-8.8,8.8-8.8c4.9,0,8.8,4,8.8,8.8
				C371.8,116,367.8,120,362.9,120z"/>
		</g>
		<g>
			<path class="st8" d="M354.1,111.2c0-4.9,4-8.8,8.8-8.8v-0.2v-4.9v-0.7c-8,0-14.6,6.5-14.6,14.6c0,0.4,0,0.9,0.1,1.3l5.7-0.6
				C354.1,111.6,354.1,111.4,354.1,111.2z"/>
		</g>
		<rect x="709.6" y="322.6" class="st29" width="28.9" height="3.6"/>
		<path class="st38" d="M204,383.2L204,383.2c-36.9,0-66.8,29.9-66.8,66.8v80.8"/>
		<path class="st41" d="M201.9,396.8L201.9,396.8c-22.1,0-40,17.9-40,40v94"/>
		<line class="st41" x1="467.5" y1="474.9" x2="530" y2="474.9"/>
		<path class="st41" d="M467,392.4h9.4c14.2,0,25.7,11.5,25.7,25.7v40.6c0,19.2,15.5,34.7,34.7,34.7l0,0"/>
		
			<rect x="152.4" y="511.2" transform="matrix(-1 -4.473101e-11 4.473101e-11 -1 321.9984 1041.6377)" class="st8" width="17.2" height="19.3"/>
		
			<rect x="189.7" y="377.2" transform="matrix(-1 -4.473056e-11 4.473056e-11 -1 396.5513 767.5717)" class="st8" width="17.2" height="13.1"/>
		
			<rect x="132.6" y="511.2" transform="matrix(-1 -4.547130e-11 4.547130e-11 -1 282.4984 1041.6377)" class="st8" width="17.2" height="19.3"/>
		
			<rect x="144.6" y="507.9" transform="matrix(-1 -4.543444e-11 4.543444e-11 -1 294.4151 1023.2628)" class="st8" width="5.3" height="7.4"/>
		<g>
			<g>
				<path class="st7" d="M884.3,530.4H535c-2.8,0-5-2.3-5-5V280.8c0-2.8,2.3-5,5-5h349.3c2.8,0,5,2.3,5,5v244.6
					C889.3,528.2,887,530.4,884.3,530.4z"/>
				<path class="st26" d="M873,533.7H546.3c-10.8,0-19.5-8.8-19.5-19.5v-222c0-10.8,8.8-19.5,19.5-19.5H873
					c10.8,0,19.5,8.8,19.5,19.5v222C892.5,524.9,883.8,533.7,873,533.7z M546.3,279.1c-7.2,0-13,5.8-13,13v222c0,7.2,5.8,13,13,13
					H873c7.2,0,13-5.8,13-13v-222c0-7.2-5.8-13-13-13H546.3z"/>
			</g>
			<g>
				<rect x="542.3" y="288.8" class="st7" width="331.4" height="221.2"/>
				<path class="st26" d="M875.3,511.6H540.6V287.1h334.6V511.6z M543.9,508.4H872v-218H543.9V508.4z"/>
			</g>
			<g>
				<g>
					<path class="st9" d="M811.1,335.9c-14.6,0-26.5,11.9-26.5,26.5c0,14.6,11.9,26.5,26.5,26.5c14.6,0,26.5-11.9,26.5-26.5
						C837.6,347.8,825.7,335.9,811.1,335.9z M811.1,378.5c-8.9,0-16.1-7.2-16.1-16.1c0-8.9,7.2-16.1,16.1-16.1
						c8.9,0,16.1,7.2,16.1,16.1C827.1,371.3,819.9,378.5,811.1,378.5z"/>
				</g>
			</g>
			<g>
				<g>
					<path class="st8" d="M811.1,335.9c-14.6,0-26.5,11.9-26.5,26.5c0,14.6,11.9,26.5,26.5,26.5c14.6,0,26.5-11.9,26.5-26.5
						C837.6,347.8,825.7,335.9,811.1,335.9z M811.1,378.5c-8.9,0-16.1-7.2-16.1-16.1c0-8.9,7.2-16.1,16.1-16.1
						c8.9,0,16.1,7.2,16.1,16.1C827.1,371.3,819.9,378.5,811.1,378.5z"/>
				</g>
			</g>
			<g>
				<g>
					<path class="st9" d="M739.4,335.9c-14.6,0-26.5,11.9-26.5,26.5c0,14.6,11.9,26.5,26.5,26.5c14.6,0,26.5-11.9,26.5-26.5
						C766,347.8,754.1,335.9,739.4,335.9z M739.4,378.5c-8.9,0-16.1-7.2-16.1-16.1c0-8.9,7.2-16.1,16.1-16.1
						c8.9,0,16.1,7.2,16.1,16.1C755.5,371.3,748.3,378.5,739.4,378.5z"/>
				</g>
			</g>
			<g>
				<g>
					<path class="st8" d="M755.4,364.1c-0.8,8.1-7.7,14.4-16,14.4c-8.9,0-16.1-7.2-16.1-16.1c0-8.9,7.2-16.1,16.1-16.1v-10.5
						c-14.6,0-26.5,11.9-26.5,26.5c0,14.6,11.9,26.5,26.5,26.5c14.1,0,25.6-11,26.4-24.8H755.4z"/>
				</g>
			</g>
			<g>
				<path class="st7" d="M494.8,501.8v12.3c0,9,7.3,16.3,16.3,16.3h397.1c9,0,16.3-7.3,16.3-16.3v-12.3H494.8z"/>
				<path class="st26" d="M908.2,533.7H511.1c-10.8,0-19.5-8.8-19.5-19.5v-15.6h436.2v15.6C927.7,524.9,919,533.7,908.2,533.7z
					 M498,505v9.1c0,7.2,5.8,13,13,13h397.1c7.2,0,13-5.8,13-13V505H498z"/>
			</g>
			<g>
				<rect x="655.7" y="503.6" class="st7" width="86" height="12.5"/>
				<path class="st26" d="M743.4,517.7h-89.3v-15.8h89.3V517.7z M657.3,514.5h82.8v-9.3h-82.8V514.5z"/>
			</g>
			<g>
				<rect x="559.1" y="304.1" class="st7" width="123.2" height="88.4"/>
				<path class="st26" d="M683.5,393.7H557.9v-90.8h125.6V393.7z M560.3,391.2h120.8v-86H560.3V391.2z"/>
			</g>
			<g>
				<rect x="698.7" y="304.1" class="st25" width="153.7" height="15.1"/>
			</g>
			<g>
				<rect x="698.7" y="304.1" class="st44" width="28.7" height="15.1"/>
			</g>
			<g>
				
					<rect x="727.4" y="304.1" transform="matrix(-1 -1.224647e-16 1.224647e-16 -1 1499.307 623.1979)" class="st45" width="44.4" height="15.1"/>
			</g>
			<g>
				<rect x="771.9" y="304.1" class="st46" width="46.7" height="15.1"/>
			</g>
			<g>
				<g>
					<rect x="789.2" y="426.5" class="st9" width="50.1" height="3.1"/>
				</g>
				<g>
					<rect x="789.2" y="434.9" class="st9" width="50.1" height="3.1"/>
				</g>
				<g>
					<rect x="789.2" y="443.3" class="st9" width="36.8" height="3.1"/>
				</g>
				<g>
					<rect x="789.2" y="451.6" class="st9" width="50.1" height="3.1"/>
				</g>
				<g>
					<rect x="789.2" y="460" class="st9" width="40.6" height="3.1"/>
				</g>
				<g>
					<rect x="789.2" y="468.4" class="st9" width="21.9" height="3.1"/>
				</g>
				<g>
					<path class="st9" d="M798.2,406.3h-9v9h9V406.3z M796,413.1h-4.6v-4.6h4.6V413.1z"/>
				</g>
				<g>
					<path class="st9" d="M812.7,406.3h-9v9h9V406.3z M810.5,413.1h-4.6v-4.6h4.6V413.1z"/>
				</g>
			</g>
			<g>
				<g>
					<rect x="712.9" y="426.5" class="st9" width="50.1" height="3.1"/>
				</g>
				<g>
					<rect x="712.9" y="434.9" class="st9" width="50.1" height="3.1"/>
				</g>
				<g>
					<rect x="712.9" y="443.3" class="st9" width="36.8" height="3.1"/>
				</g>
				<g>
					<rect x="712.9" y="451.6" class="st9" width="50.1" height="3.1"/>
				</g>
				<g>
					<rect x="712.9" y="460" class="st9" width="40.6" height="3.1"/>
				</g>
				<g>
					<rect x="712.9" y="468.4" class="st9" width="21.9" height="3.1"/>
				</g>
				<g>
					<path class="st9" d="M721.9,406.3h-9v9h9V406.3z M719.7,413.1h-4.6v-4.6h4.6V413.1z"/>
				</g>
				<g>
					<path class="st9" d="M736.4,406.3h-9v9h9V406.3z M734.3,413.1h-4.6v-4.6h4.6V413.1z"/>
				</g>
			</g>
			<g>
				<path class="st44" d="M564.1,318v53.4c0,6.6,7.4,10.6,12.9,6.9l14.2-9.5c2.6-1.8,6-1.9,8.8-0.3l5.5,3.2c3.1,1.8,6.9,1.4,9.6-0.9
					l30.5-26.5c3.4-3,8.5-2.7,11.6,0.7l0,0c2.9,3.2,7.8,3.6,11.2,1l5.8-4.5c2-1.6,3.2-4,3.2-6.6V318c0-4.6-3.7-8.3-8.3-8.3h-96.6
					C567.8,309.7,564.1,313.4,564.1,318z"/>
			</g>
			<g>
				<path class="st7" d="M568.8,404.7v22.4c0,0.9-0.7,1.6-1.6,1.6h-7.1c-0.9,0-1.6-0.7-1.6-1.6v-22.4c0-0.9,0.7-1.6,1.6-1.6h7.1
					C568.1,403.2,568.8,403.9,568.8,404.7z"/>
				<path class="st26" d="M563.7,430c-3.5,0-6.3-2.8-6.3-6.3v-15.4c0-3.5,2.8-6.3,6.3-6.3s6.3,2.8,6.3,6.3v15.4
					C570,427.1,567.2,430,563.7,430z M563.7,404.4c-2.1,0-3.9,1.7-3.9,3.9v15.4c0,2.1,1.7,3.9,3.9,3.9s3.9-1.7,3.9-3.9v-15.4
					C567.6,406.1,565.8,404.4,563.7,404.4z"/>
			</g>
			<g>
				<circle class="st28" cx="563.7" cy="409.5" r="2.8"/>
			</g>
			<g>
				<path class="st7" d="M587.3,404.7v22.4c0,0.9-0.7,1.6-1.6,1.6h-7.1c-0.9,0-1.6-0.7-1.6-1.6v-22.4c0-0.9,0.7-1.6,1.6-1.6h7.1
					C586.5,403.2,587.3,403.9,587.3,404.7z"/>
				<path class="st26" d="M582.1,430c-3.5,0-6.3-2.8-6.3-6.3v-15.4c0-3.5,2.8-6.3,6.3-6.3s6.3,2.8,6.3,6.3v15.4
					C588.5,427.1,585.6,430,582.1,430z M582.1,404.4c-2.1,0-3.9,1.7-3.9,3.9v15.4c0,2.1,1.7,3.9,3.9,3.9c2.1,0,3.9-1.7,3.9-3.9
					v-15.4C586,406.1,584.3,404.4,582.1,404.4z"/>
			</g>
			<g>
				<circle class="st28" cx="582.1" cy="416.7" r="2.8"/>
			</g>
			<g>
				<path class="st7" d="M605.7,404.7v22.4c0,0.9-0.7,1.6-1.6,1.6h-7.1c-0.9,0-1.6-0.7-1.6-1.6v-22.4c0-0.9,0.7-1.6,1.6-1.6h7.1
					C605,403.2,605.7,403.9,605.7,404.7z"/>
				<path class="st26" d="M600.6,430c-3.5,0-6.3-2.8-6.3-6.3v-15.4c0-3.5,2.8-6.3,6.3-6.3s6.3,2.8,6.3,6.3v15.4
					C606.9,427.1,604.1,430,600.6,430z M600.6,404.4c-2.1,0-3.9,1.7-3.9,3.9v15.4c0,2.1,1.7,3.9,3.9,3.9c2.1,0,3.9-1.7,3.9-3.9
					v-15.4C604.5,406.1,602.7,404.4,600.6,404.4z"/>
			</g>
			<g>
				<circle class="st28" cx="600.6" cy="409.5" r="2.8"/>
			</g>
			<g>
				<path class="st7" d="M624.2,404.7v22.4c0,0.9-0.7,1.6-1.6,1.6h-7.1c-0.9,0-1.6-0.7-1.6-1.6v-22.4c0-0.9,0.7-1.6,1.6-1.6h7.1
					C623.5,403.2,624.2,403.9,624.2,404.7z"/>
				<path class="st26" d="M619.1,430c-3.5,0-6.3-2.8-6.3-6.3v-15.4c0-3.5,2.8-6.3,6.3-6.3s6.3,2.8,6.3,6.3v15.4
					C625.4,427.1,622.6,430,619.1,430z M619.1,404.4c-2.1,0-3.9,1.7-3.9,3.9v15.4c0,2.1,1.7,3.9,3.9,3.9c2.1,0,3.9-1.7,3.9-3.9
					v-15.4C622.9,406.1,621.2,404.4,619.1,404.4z"/>
			</g>
			<g>
				<circle class="st28" cx="619.1" cy="422.3" r="2.8"/>
			</g>
			<g>
				<path class="st7" d="M680.5,428.9h-48c-1.1,0-2-0.9-2-2v-21.6c0-1.1,0.9-2,2-2h48c1.1,0,2,0.9,2,2v21.6
					C682.5,428,681.6,428.9,680.5,428.9z"/>
				<path class="st26" d="M675.9,430.1h-39c-4.3,0-7.7-3.5-7.7-7.7v-12.6c0-4.3,3.5-7.7,7.7-7.7h39c4.3,0,7.7,3.5,7.7,7.7v12.6
					C683.7,426.6,680.2,430.1,675.9,430.1z M637,404.4c-2.9,0-5.3,2.4-5.3,5.3v12.6c0,2.9,2.4,5.3,5.3,5.3h39c2.9,0,5.3-2.4,5.3-5.3
					v-12.6c0-2.9-2.4-5.3-5.3-5.3H637z"/>
			</g>
			<g>
				<path class="st7" d="M650.4,416c0,3.3-2.7,6-6,6c-3.3,0-6-2.7-6-6c0-2.9,2-5.3,4.8-5.8c0.4-0.1,0.8-0.1,1.2-0.1
					C647.7,410.1,650.4,412.7,650.4,416z"/>
				<path class="st26" d="M644.4,423.2c-4,0-7.2-3.2-7.2-7.2c0-3.4,2.4-6.4,5.7-7c0.5-0.1,1-0.1,1.4-0.1c4,0,7.2,3.2,7.2,7.2
					C651.6,420,648.4,423.2,644.4,423.2z M644.4,411.3c-0.3,0-0.6,0-1,0.1c-2.2,0.5-3.8,2.4-3.8,4.7c0,2.6,2.1,4.7,4.7,4.7
					c2.6,0,4.7-2.1,4.7-4.7C649.2,413.4,647.1,411.3,644.4,411.3z"/>
			</g>
			<g>
				<line class="st7" x1="644.4" y1="415.7" x2="648.1" y2="411.3"/>
				
					<rect x="643.4" y="412.3" transform="matrix(0.634 -0.7733 0.7733 0.634 -83.2508 651.097)" class="st26" width="5.7" height="2.4"/>
			</g>
			<g>
				<path class="st7" d="M666.8,410.1c3.3,0,6,2.7,6,6c0,3.3-2.7,6-6,6c-2.9,0-5.3-2-5.8-4.8c-0.1-0.4-0.1-0.8-0.1-1.2
					C660.8,412.7,663.5,410.1,666.8,410.1z"/>
				<path class="st26" d="M666.8,423.2c-3.4,0-6.4-2.4-7-5.7c-0.1-0.5-0.1-1-0.1-1.4c0-4,3.2-7.2,7.2-7.2s7.2,3.2,7.2,7.2
					C674,420,670.7,423.2,666.8,423.2z M666.8,411.3c-2.6,0-4.8,2.1-4.8,4.7c0,0.3,0,0.6,0.1,1c0.5,2.2,2.4,3.8,4.7,3.8
					c2.6,0,4.7-2.1,4.7-4.7C671.5,413.4,669.4,411.3,666.8,411.3z"/>
			</g>
			<g>
				<line class="st7" x1="666.4" y1="416" x2="662" y2="412.4"/>
				
					<rect x="663" y="411.4" transform="matrix(0.6346 -0.7728 0.7728 0.6346 -77.4315 664.6812)" class="st26" width="2.4" height="5.7"/>
			</g>
			<g>
				<rect x="560.3" y="447.2" class="st26" width="121.6" height="2.4"/>
			</g>
			<g>
				<g>
					<g>
						<path class="st26" d="M562,458.5h-1.6c-0.7,0-1.2-0.5-1.2-1.2c0-0.7,0.5-1.2,1.2-1.2h1.6c0.7,0,1.2,0.5,1.2,1.2
							C563.2,458,562.6,458.5,562,458.5z"/>
					</g>
				</g>
				<g>
					<g>
						<path class="st26" d="M616.6,458.5h-24.3c-0.7,0-1.2-0.5-1.2-1.2c0-0.7,0.5-1.2,1.2-1.2h24.3c0.7,0,1.2,0.5,1.2,1.2
							C617.8,458,617.2,458.5,616.6,458.5z M589.3,458.5h-3c-0.7,0-1.2-0.5-1.2-1.2c0-0.7,0.5-1.2,1.2-1.2h3c0.7,0,1.2,0.5,1.2,1.2
							C590.5,458,589.9,458.5,589.3,458.5z"/>
					</g>
				</g>
				<g>
					<g>
						<path class="st26" d="M677.2,458.5H653c-0.7,0-1.2-0.5-1.2-1.2c0-0.7,0.5-1.2,1.2-1.2h24.3c0.7,0,1.2,0.5,1.2,1.2
							C678.5,458,677.9,458.5,677.2,458.5z M649.9,458.5h-3c-0.7,0-1.2-0.5-1.2-1.2c0-0.7,0.5-1.2,1.2-1.2h3c0.7,0,1.2,0.5,1.2,1.2
							C651.2,458,650.6,458.5,649.9,458.5z M622.6,458.5h-3c-0.7,0-1.2-0.5-1.2-1.2c0-0.7,0.5-1.2,1.2-1.2h3c0.7,0,1.2,0.5,1.2,1.2
							C623.9,458,623.3,458.5,622.6,458.5z"/>
					</g>
				</g>
				<g>
					<g>
						<path class="st26" d="M681.9,458.5h-1.6c-0.7,0-1.2-0.5-1.2-1.2c0-0.7,0.5-1.2,1.2-1.2h1.6c0.7,0,1.2,0.5,1.2,1.2
							C683.1,458,682.6,458.5,681.9,458.5z"/>
					</g>
				</g>
			</g>
			<g>
				<rect x="560.3" y="464.9" class="st26" width="121.6" height="2.4"/>
			</g>
			<g>
				<g>
					<rect x="566.5" y="472.3" class="st26" width="11" height="11"/>
				</g>
				<g>
					<rect x="580.5" y="472.3" class="st26" width="11" height="11"/>
				</g>
				<g>
					<rect x="594.6" y="472.3" class="st26" width="11" height="11"/>
				</g>
				<g>
					<rect x="608.6" y="472.3" class="st26" width="11" height="11"/>
				</g>
				<g>
					<rect x="622.6" y="472.3" class="st26" width="11" height="11"/>
				</g>
				<g>
					<rect x="636.7" y="472.3" class="st26" width="11" height="11"/>
				</g>
				<g>
					<rect x="650.7" y="472.3" class="st26" width="11" height="11"/>
				</g>
				<g>
					<rect x="664.8" y="472.3" class="st26" width="11" height="11"/>
				</g>
			</g>
			<g>
				<path class="st7" d="M707.7,333.4h-85.1V225.9c0-0.7,0.2-1.5,0.6-2.1l9.9-14.1c0.7-1,1.8-1.5,2.9-1.5h68.1c2,0,3.6,1.6,3.6,3.6
					V333.4z"/>
				<path class="st26" d="M709.3,335h-88.4V225.9c0-1.1,0.3-2.1,0.9-3l9.9-14.1c1-1.4,2.6-2.2,4.3-2.2h68.1c2.9,0,5.2,2.3,5.2,5.2
					V335z M624.2,331.8H706v-120c0-1.1-0.9-2-2-2H636c-0.6,0-1.2,0.3-1.6,0.8l-9.9,14.1c-0.2,0.3-0.4,0.7-0.4,1.1V331.8z"/>
			</g>
			<g>
				<g>
					<rect x="639.5" y="239.2" class="st26" width="39.1" height="3.3"/>
				</g>
			</g>
			<g>
				<g>
					<rect x="639.5" y="253.1" class="st26" width="39.1" height="3.3"/>
				</g>
			</g>
			<g>
				<g>
					<rect x="639.5" y="267.1" class="st26" width="39.1" height="3.3"/>
				</g>
			</g>
			<g>
				<g>
					<rect x="639.5" y="281.1" class="st26" width="39.1" height="3.3"/>
				</g>
			</g>
			<g>
				<path class="st26" d="M917,275.1h-27.7v-1.6c0-8-4-15.4-10.8-19.9l-1.6-1.1l1.3-1.4c2.7-2.9,4.2-6.7,4.2-10.7
					c0-8.6-7-15.6-15.7-15.6c-0.5,0-0.9,0-1.4,0.1l-1.3,0.1l-0.4-1.3c-3.7-11.9-14.5-19.8-26.9-19.8c-13.3,0-25,9.5-27.6,22.5
					l-0.6,2.9l-2.1-2c-2.6-2.5-6-3.8-9.7-3.8c-7.2,0-13.2,5.4-14,12.5l-0.2,1.5h-36.3c-0.9,0-1.6-0.7-1.6-1.6c0-0.9,0.7-1.6,1.6-1.6
					h33.4c1.6-8.1,8.6-14,17-14c3.6,0,7,1.1,9.8,3c3.9-13.2,16.2-22.6,30.2-22.6c13.4,0,25.2,8.4,29.6,20.9c0.1,0,0.3,0,0.4,0
					c10.4,0,18.9,8.5,18.9,18.9c0,4.2-1.4,8.2-3.9,11.5c6.3,4.8,10.2,12,10.7,19.9H917c0.9,0,1.6,0.7,1.6,1.6S917.9,275.1,917,275.1
					z"/>
			</g>
			<g>
				<line class="st7" x1="723.8" y1="248.7" x2="735.6" y2="248.7"/>
				<path class="st26" d="M735.6,250.3h-11.8c-0.9,0-1.6-0.7-1.6-1.6s0.7-1.6,1.6-1.6h11.8c0.9,0,1.6,0.7,1.6,1.6
					S736.5,250.3,735.6,250.3z"/>
			</g>
			<g>
				<path class="st7" d="M760.8,206.9l31.9,31.9c4.3,4.3,4.3,11.3,0,15.5c-4.3,4.3-11.3,4.3-15.5,0l-31.9-31.9
					c-2.7-2.7-3.7-6.4-3-9.8l6.9-1.9l1.9-6.9c0.7-0.1,1.3-0.2,2-0.2C755.8,203.7,758.6,204.8,760.8,206.9z"/>
				<path class="st26" d="M784.9,259.1c-3.2,0-6.5-1.2-8.9-3.7l-31.9-31.9c-2.9-2.9-4.2-7.1-3.5-11.2l0.2-1l7-1.9l1.9-7l1-0.2
					c4.2-0.8,8.3,0.6,11.2,3.5l31.9,31.9c4.9,4.9,4.9,12.9,0,17.8C791.3,257.9,788.1,259.1,784.9,259.1z M743.7,213.9
					c-0.2,2.7,0.8,5.4,2.7,7.3l31.9,31.9c3.6,3.6,9.6,3.6,13.2,0c3.6-3.6,3.6-9.6,0-13.2l-31.9-31.9c-1.9-1.9-4.6-2.9-7.3-2.7
					l-1.8,6.8L743.7,213.9z"/>
			</g>
			<g>
				<path class="st7" d="M757.4,191.1c4.2,4.2,6.1,9.8,5.7,15.2c-0.3,4.6-2.2,9.2-5.7,12.7c-3.5,3.5-8.1,5.5-12.7,5.7
					c-5.5,0.4-11-1.6-15.2-5.7c-4.6-4.6-6.4-10.8-5.6-16.7l11.4,11.4l5.1-1.4l8.2-2.2l2.2-8.2l1.3-5l-11.4-11.4
					C746.6,184.7,752.8,186.6,757.4,191.1z"/>
				<path class="st26" d="M743.4,226.4c-5.6,0-11.1-2.2-15.1-6.3c-4.8-4.8-7-11.4-6.1-18.1l0.4-3.2l13,13l11.4-3.1l3.1-11.4l-13-13
					l3.2-0.5c6.6-0.9,13.4,1.3,18.1,6l0,0c4.3,4.3,6.6,10.3,6.2,16.5c-0.3,5.2-2.5,10.1-6.2,13.8c-3.7,3.7-8.6,5.9-13.8,6.2
					C744.3,226.4,743.8,226.4,743.4,226.4z M725.3,206.1c0.2,4.4,2.1,8.6,5.3,11.8c3.7,3.7,8.8,5.6,14,5.3c4.4-0.3,8.5-2.1,11.7-5.3
					c3.1-3.1,5-7.3,5.3-11.7c0.3-5.2-1.6-10.3-5.3-14c-3.2-3.2-7.4-5.1-11.8-5.3l9.4,9.4l-4,15l-15.1,4L725.3,206.1z"/>
			</g>
		</g>
		<g>
			<g class="st23">
				<polygon class="st9" points="935,275.9 932.1,263.3 841,263.3 841,275.9 841,343.7 841,356.4 972.5,356.4 972.5,275.9 				"/>
			</g>
			<g>
				<polygon class="st7" points="943.1,268.1 940.2,255.4 849.1,255.4 849.1,268.1 849.1,335.9 849.1,348.6 980.6,348.6 
					980.6,268.1 				"/>
				<path class="st8" d="M981.9,349.9H847.8v-95.8h93.5l2.9,12.7h37.7V349.9z M850.4,347.3h128.9v-77.9h-37.2l-2.9-12.7h-88.8V347.3
					z"/>
			</g>
			<g>
				<path class="st8" d="M980.6,291.2H849.1c-0.7,0-1.3-0.6-1.3-1.3c0-0.7,0.6-1.3,1.3-1.3h131.5c0.7,0,1.3,0.6,1.3,1.3
					C981.9,290.7,981.3,291.2,980.6,291.2z"/>
			</g>
			<g>
				<rect x="881.9" y="285.1" class="st7" width="33" height="10"/>
				<path class="st8" d="M916.2,296.3h-35.6v-12.6h35.6V296.3z M883.2,293.7h30.4v-7.4h-30.4V293.7z"/>
			</g>
		</g>
		<g>
			<circle class="st28" cx="420.9" cy="260.3" r="2.3"/>
		</g>
		<g>
			
				<ellipse transform="matrix(0.4676 -0.8839 0.8839 0.4676 -0.3971 519.9911)" class="st28" cx="431.5" cy="260.3" rx="2.3" ry="2.3"/>
		</g>
		<g>
			<circle class="st34" cx="442.1" cy="260.3" r="2.3"/>
		</g>
		<circle class="st42" cx="775.6" cy="126.5" r="38.2"/>
		<polyline class="st47" points="779.7,103.9 779.7,131.6 759.8,131.6 		"/>
		<g>
			<path class="st48" d="M532.1,81.9l-110.5,39.2c0,0,1.7,74.6,20.4,124.1c25.4,67.5,90.2,89.9,90.2,89.9s64.7-22.4,90.1-89.9
				c18.7-49.6,20.4-124.1,20.4-124.1L532.1,81.9z"/>
		</g>
		<g>
			<path class="st8" d="M532.1,104.9L441.7,137c0,0,1.4,61.1,16.7,101.6c20.8,55.3,73.8,73.6,73.8,73.6s53-18.3,73.8-73.6
				C621.2,198,622.6,137,622.6,137L532.1,104.9z"/>
		</g>
		<path class="st12" d="M530.1,58.7L530.1,58.7c-1.3,0-2.3-1-2.3-2.3V38c0-1.3,1-2.3,2.3-2.3l0,0c1.3,0,2.3,1,2.3,2.3v18.4
			C532.4,57.7,531.3,58.7,530.1,58.7z"/>
		<path class="st12" d="M521.1,58.7L521.1,58.7c-0.9,0.9-2.4,0.9-3.3,0l-13-13c-0.9-0.9-0.9-2.4,0-3.3v0c0.9-0.9,2.4-0.9,3.3,0
			l13,13C522,56.3,522,57.8,521.1,58.7z"/>
		<path class="st12" d="M539.1,58.7L539.1,58.7c-0.9-0.9-0.9-2.4,0-3.3l13-13c0.9-0.9,2.4-0.9,3.3,0v0c0.9,0.9,0.9,2.4,0,3.3l-13,13
			C541.4,59.6,540,59.6,539.1,58.7z"/>
		<g>
			<path class="st49" d="M720.8,175.3c0,11.9-9.5,21.5-21.5,21.5s-21.5-9.5-21.5-21.5c0-11.9,9.5-21.5,21.5-21.5
				c5,0,9.8,1.9,13.4,4.8l3.3-3.3c1.2,1,2.4,2.1,3.6,3.3l-3.6,3.3C719.1,165.5,720.8,170.3,720.8,175.3z M699.3,158.6
				c-9.3,0-16.7,7.4-16.7,16.7c0,9.3,7.4,16.7,16.7,16.7s16.7-7.4,16.7-16.7C716,166,708.6,158.6,699.3,158.6z M696.9,163.4h4.8
				v14.3h-4.8V163.4z M692.2,146.7h14.3v4.8h-14.3V146.7z"/>
		</g>
		<g>
			<path class="st50" d="M603.8,311.8l25,15l-5,8.1l-29.4-17.5v-31.9h9.4V311.8z M603.8,373.2c-27.5,0-50.6-18.8-57.5-43.8h13.1
				c6.9,18.2,23.8,31.3,44.4,31.3c25.6,0,46.9-21.3,46.9-47c0-25.7-21.3-47-46.9-47c-18.8,0-34.4,10.6-42.5,26.3l17.5,17.5h-40.6
				v-40.7l14.4,14.4c10-18.2,29.4-30.1,51.3-30.1c32.5,0,59.4,26.9,59.4,59.5S636.9,373.2,603.8,373.2z"/>
		</g>
		<g>
			<path class="st51" d="M227.3,135.2l7.5,4.5l-1.5,2.4l-8.8-5.3v-9.6h2.8V135.2z M227.3,153.6c-8.3,0-15.2-5.7-17.3-13.2h3.9
				c2.1,5.5,7.1,9.4,13.3,9.4c7.7,0,14.1-6.4,14.1-14.1c0-7.7-6.4-14.1-14.1-14.1c-5.6,0-10.3,3.2-12.8,7.9l5.3,5.3h-12.2v-12.2
				l4.3,4.3c3-5.5,8.8-9,15.4-9c9.8,0,17.9,8.1,17.9,17.9S237.3,153.6,227.3,153.6z"/>
		</g>
		<g>
			<path class="st11" d="M511.6,202.2l5-5l11.2,11.2l31-31l5,5l-36,36L511.6,202.2z M531.4,175.2c-15.8,0-28.8,13-28.8,28.8
				s13,28.8,28.8,28.8s28.8-13,28.8-28.8h7.2c0,19.8-16.2,36-36,36s-36-16.2-36-36s16.2-36,36-36c4.7,0,9.4,1.1,13.7,2.5l-5.8,5.8
				C536.8,175.5,534.2,175.2,531.4,175.2z"/>
		</g>
	</g>
</g>
<g id="Layer_2">
</g>
</svg>
